<?xml version="1.0" encoding="utf-8"?>
<!-- Generator: Adobe Illustrator 25.0.0, SVG Export Plug-In . SVG Version: 6.00 Build 0)  -->
<svg version="1.1" id="レイヤー_1" xmlns="http://www.w3.org/2000/svg" xmlns:xlink="http://www.w3.org/1999/xlink" x="0px"
	 y="0px" viewBox="0 0 48 48" style="enable-background:new 0 0 48 48;" xml:space="preserve">
<style type="text/css">
	.st0{opacity:0.8;fill:#DEE2E6;enable-background:new    ;}
	.st1{opacity:0.8;fill:#495057;enable-background:new    ;}
</style>
<path class="st0" d="M24,47.2c12.8,0,23.2-10.4,23.2-23.2S36.8,0.8,24,0.8S0.8,11.2,0.8,24S11.2,47.2,24,47.2z M26.6,11.7
	c0.4-0.4,1.1-0.5,1.5,0c0.2,0.2,0.3,0.5,0.3,0.8v23.1c0.1,0.6-0.4,1.1-1,1.2c-0.3,0-0.7-0.1-0.9-0.3L15.1,24.8
	c-0.4-0.4-0.5-1.1-0.1-1.5l0.1-0.1L26.6,11.7z"/>
<path class="st1" d="M26.6,11.7c0.4-0.4,1.1-0.5,1.5,0c0.2,0.2,0.3,0.5,0.3,0.8v23.1c0.1,0.6-0.4,1.1-1,1.2c-0.3,0-0.7-0.1-0.9-0.3
	L15.1,24.8c-0.4-0.4-0.5-1.1-0.1-1.5l0.1-0.1L26.6,11.7z"/>
</svg>
