<svg id="レイヤー_1" data-name="レイヤー 1" xmlns="http://www.w3.org/2000/svg" viewBox="0 0 48 48"><defs><style>.cls-1{fill:#dee2e6;}.cls-1,.cls-2{opacity:0.8;isolation:isolate;}.cls-2{fill:#495057;}</style></defs><path class="cls-1" d="M24,47.2A23.2,23.2,0,1,0,.8,24,23.22,23.22,0,0,0,24,47.2Zm2.6-35.5a1,1,0,0,1,1.5,0,1.14,1.14,0,0,1,.3.8V35.6a1.11,1.11,0,0,1-1,1.2,1.4,1.4,0,0,1-.9-.3L15.1,24.8a1.09,1.09,0,0,1-.1-1.5l.1-.1Z"/><path class="cls-2" d="M26.6,11.7a1,1,0,0,1,1.5,0,1.14,1.14,0,0,1,.3.8V35.6a1.11,1.11,0,0,1-1,1.2,1.4,1.4,0,0,1-.9-.3L15.1,24.8a1.09,1.09,0,0,1-.1-1.5l.1-.1Z"/></svg>