<svg id="レイヤー_1" data-name="レイヤー 1" xmlns="http://www.w3.org/2000/svg" viewBox="0 0 48 48"><defs><style>.cls-1{fill:#dee2e6;}.cls-1,.cls-2{opacity:0.8;isolation:isolate;}.cls-2{fill:#495057;}</style></defs><path class="cls-1" d="M24,.8A23.2,23.2,0,1,0,47.2,24,23.22,23.22,0,0,0,24,.8ZM21.4,36.3a1.09,1.09,0,0,1-1.5.1,1.23,1.23,0,0,1-.4-.8V12.5a1.19,1.19,0,0,1,1-1.2,1.61,1.61,0,0,1,.9.3L32.9,23.1a1.09,1.09,0,0,1,.1,1.5l-.1.1Z"/><path class="cls-2" d="M21.4,36.3a1.09,1.09,0,0,1-1.5.1,1.23,1.23,0,0,1-.4-.8V12.5a1.19,1.19,0,0,1,1-1.2,1.61,1.61,0,0,1,.9.3L32.9,23.1a1.09,1.09,0,0,1,.1,1.5l-.1.1Z"/></svg>