<svg id="icon" xmlns="http://www.w3.org/2000/svg" viewBox="0 0 400 400"><defs><style>.cls-1{fill:#636363;}</style></defs><path class="cls-1" d="M382.37,184.77c0-.43-.53-.85-.85-1.24-4.33-5.2-8.63-10.43-13-15.55a4.16,4.16,0,0,0-2.71-1.37c-6.53-.11-13.07-.1-19.61,0-10.86.14-21.71,1.24-32.52-1.26-6.88-1.59-8.37-5.09-3.84-10.6a20,20,0,0,0,1.43-1.64c3.62-5.5,8-10.68,10.6-16.64,3.13-7.21,5-15,6.9-22.69a33.16,33.16,0,0,0-.56-18.64,11.22,11.22,0,0,1-.41-4.58c1.07-9.77-2.75-17.65-9.18-24.62-3.2-3.47-6.21-7.12-9.41-10.59-1.59-1.71-3.16-3.73-5.18-4.69-8.49-4-17.2-7.49-26.84-7.34-2.94.05-6,1-8.79.4a21.11,21.11,0,0,0-12.07.82,21.24,21.24,0,0,1-5.74,1.23c-9.12.63-16.92,3.8-23,11-2.36,2.82-5.26,5.18-7.85,7.82A48.55,48.55,0,0,0,215,69.76a31.57,31.57,0,0,0-5.68,14.56c-.42,3-2.1,4.72-5.07,5-2.62.22-5-.35-6.16-3.11-1.31-3.25-2.31-6.63-3.78-9.81-2.11-4.57-2.87-9.88-7.27-13.26a47.21,47.21,0,0,1-4.27-4.33c-2.88-2.88-5.18-6.44-9.23-8-2.9-1.11-5.77-2.27-8.66-3.37-3.82-1.44-7.58-3.11-11.5-4.17-2.51-.68-5.27-.42-7.91-.62-1.53-.12-3.09-.63-4.58-.45-5.08.61-10.15,1.3-15.17,2.26-4.14.79-8.18,2.14-12.31,3s-7.65,2.37-10.38,5.63c-3.35,4-6.4,8.36-10.26,11.8-3.24,2.88-4.51,6.58-5.9,10.18-2,5-3.09,10.41-4.58,15.64-.78,2.75-2.28,5.51-2.22,8.24.22,9.56,3.55,18.48,6.54,27.44.58,1.74.54,3.86,1.55,5.25,5.81,8,12.54,15.08,21.39,19.83,2.88,1.55,4.19,4,2.71,6.61-1.32,2.33-3.08,5.16-5.33,6.08-6.72,2.74-13.52,5.89-21.25,3.76a19.92,19.92,0,0,0-7.27-.36c-4.38.49-8.69,1.51-13.07,2.07-2.6.32-5.26.12-7.89.26-4.87.26-9.73.69-14.6.87s-9.44.08-14.16.24c-.69,0-1.35.81-2,1.27-6.42,4.45-7.63,11.39-7.75,18.27-.22,12.7.39,25.42.44,38.13a169.12,169.12,0,0,1-.72,19.11c-.47,4.3-.78,8.37.91,12.43a6,6,0,0,1,.41,2.71c-.44,4.52,1.13,9.31-1.7,13.53-.09.13,0,.4,0,.61.44,4.13,1,8.26,1.29,12.4.44,6,1,12,1,18,.1,14.94-.4,29.9,2.19,44.73,4.91-.15,7,1.11,8.9,5.65,4.14-.47,8.11-1.18,12.1-1.31,8.24-.29,16.51-.09,24.75-.42,7-.28,14-1.15,20.94-1.5,7.68-.39,15.38-.59,23.07-.67,11-.11,22,0,33,0,7.07,0,14.14.15,21.2-.05,7.7-.22,15.38-.79,23.07-1.16,3.59-.18,7.19-.36,10.78-.38s7.1.14,10.65.23c3.22.09,6.46.09,9.68.32,2,.15,4,1,6.05,1,5.2,0,10.41-.53,15.61-.5,8.87.06,17.74.43,26.62.56,4.25.06,8.5-.12,12.76-.21,4.71-.1,9.43-.25,14.14-.32,2.63,0,5.27,0,7.9.11,2.34.09,4.7.61,7,.43,5.21-.41,10.39-1.19,15.6-1.72,4.54-.46,9.1-.85,13.66-1.14a89.11,89.11,0,0,1,10.07-.25c4.4.23,8.79,1.08,13.19,1.17,2.94.06,5.89-.83,8.85-1.14,7.12-.73,11.07-5.51,9.46-12.71a18.55,18.55,0,0,1-.32-4.22c0-3.32,1.09-7,.06-9.88-1.36-3.86-.82-7.26-.51-11,.65-7.82.69-15.7.72-23.55,0-6.4-.56-12.81-.53-19.21.07-13.8.32-27.6.6-41.4.11-5.53.52-11.05.76-16.57.13-3.08.19-6.16.25-9.23.05-2.39.14-4.78.07-7.16C382.84,192.17,382.62,188.47,382.37,184.77Zm-141.09-99a5.55,5.55,0,0,1,1-1.19c3.76-3.75,7.42-7.63,11.37-11.17A23.53,23.53,0,0,1,260.58,69c2.44-.95,5.23-1,7.86-1.46s5.18-1.1,7.77-1.65c11.25-.38,18.46,6.19,21.08,15.4a36.22,36.22,0,0,0,1.87,4.57c2.16,4.94-.55,9.71-.48,14.58,0,1.32-.27,2.65-.29,4-.09,7.74-2.14,14.61-8.47,19.65a2.6,2.6,0,0,0-.94,1.21c-1.21,5-5.4,6.24-9.43,7.85-4.18,1.67-8.2,1.24-12.42.1a94,94,0,0,0-10.61-1.81c-7.8-1.18-11.43-6.29-13.21-13.45-1-4-2.48-7.82-3.81-11.7A24.14,24.14,0,0,1,241.28,85.73ZM106.71,106.86c3.33-10.71,2.88-22,12.12-29.68,7.16-5.94,15.25-7.92,24.26-6.8,2.85.36,5.62,1.3,8.47,1.75,4,.63,7,2.82,9.89,5.43,6.25,5.72,9.5,13.31,12.8,20.85,1.71,3.89.19,7.71-1,11.11-2,5.55-5.08,10.72-7.76,16-.31.61-.94,1.37-1.52,1.48-4.42.85-6.31,4.78-9,7.54a22.42,22.42,0,0,1-23.81,4.89c-7.75-2.85-14.15-7.2-17.78-14.49C110.43,119.16,108.8,112.73,106.71,106.86ZM361,274.63c.87,6.4.38,12.61.28,18.88-.14,9.33-.65,18.67-1.22,28a11.79,11.79,0,0,1-10.45,11.18c-4.78.66-9.61.88-14.41,1.35-3.78.37-7.55.93-11.34,1.2-7,.51-14,1.07-21,1.24-14.87.35-29.73.45-44.6.67-3.72.05-7.86,1.23-11.09,0-7.32-2.79-14.41-.47-21.57-.48-3.76,0-7.51.36-11.27.49-4.07.13-8.15.25-12.23.26-5,0-9.95-.17-14.93-.13-3.06,0-6.11.43-9.17.47-6.44.07-12.88-.16-19.3.08-4.33.16-8.84-.33-12.84,2.23a7.49,7.49,0,0,1-3.59.79c-9.14.36-18.23-.4-27.35-1-10-.66-20.14.17-30.22.33-4.72.08-9.43.09-14.14.23a34.43,34.43,0,0,0-6.74.61c-4,.94-7.23-.35-10.23-2.84a5.35,5.35,0,0,0-2.38-1.26c-3.68-.62-5.44-3.2-6.57-6.34a37.78,37.78,0,0,1-2.21-16.51c.22-2.42-.41-4.9-.52-7.37-.45-10.45-1.32-20.93-1.13-31.38.17-9.78,1.5-19.53,2.27-29.31.49-6.16.86-12.33,1.34-18.49.82-10.56,1.43-21.15,2.66-31.67.6-5.1,3.84-7.25,8.72-7.51,6-.31,11.92-.92,17.88-1.09,4.12-.11,8.24.34,12.36.48q25.24.81,50.49,1.58a15.24,15.24,0,0,1,3.9.17c2.91.91,4.35,3.6,3.15,6.37a87.75,87.75,0,0,1-5.62,11c-4,6.49-8.22,12.8-12.35,19.18-1.51,2.33-2.9,4.73-4.54,7-4.52,6.13-9.14,12.18-13.71,18.27-.17.23-.26.53-.21.42l13.11,7.76a5.17,5.17,0,0,0,1,.53c3.84,1.24,7.72,2.39,11.52,3.75,1.1.4,2,1.41,3.27,2.38,4.37-6.17,8.65-12.48,13.2-18.59,6.22-8.37,12.49-16.71,19.07-24.79,2.75-3.37,6.41-6,9.53-9.1,1.2-1.2,1.95-2.85,3.1-4.13,4.47-5,9-9.9,13.54-14.85,2.32-2.55,7.69-2.73,9.78,0,6.1,8,13,15.38,17.78,24.41,4.86,9.18,10.24,18.1,15.4,27.12.3.52.65,1.26,1.12,1.4,4.09,1.19,5.34,4.95,7.29,8a5,5,0,0,0,6.1,1.68c2.62-1.33,5.55-2.11,8-3.62a41.3,41.3,0,0,0,7.76-6c1.61-1.63,2.51-4,3.79-6.1-2-3.54-4.17-7.22-6.2-11-2.87-5.32-5.64-10.7-8.47-16.05-2.11-4-4.49-7.88-6.29-12A33.4,33.4,0,0,1,248,193c-.41-3.53,1.4-5.06,5-5.14,13.79-.28,27.62,0,41.37-1,16-1.09,31.86.36,47.79.33,4.17,0,8.53,1.58,12.48,3.22,3.66,1.51,5.54,5.32,5.85,9,.82,9.76,1.32,19.57,1.34,29.37,0,6.23-1.42,12.46-1.54,18.7C360.08,256.59,359.74,265.74,361,274.63Z"/><path class="cls-1" d="M186.48,322.45a58.68,58.68,0,0,0-.57,9.36c0,6.21,4.48,15.2,4.48,15.2,2.94.06,5.89-.83,8.85-1.14,7.12-.73,11.07-5.51,9.46-12.71a19.14,19.14,0,0,1-.33-4.22c0-3.32,1.1-7,.07-9.88-1.36-3.86-.82-7.26-.51-11,.65-7.82.69-15.7.71-23.55,0-6.4-.55-12.81-.52-19.21.07-13.8.32-27.6.6-41.4.11-5.52.52-11.05.75-16.57.14-3.08.2-6.16.26-9.23.05-2.39.14-4.77.07-7.16l-22.5,3.61c.82,9.76,1.32,19.57,1.34,29.37,0,6.23-1.43,12.46-1.55,18.71-.17,9-.51,18.18.7,27.08.87,6.4.38,12.6.28,18.88-.14,9.33-.65,18.66-1.23,28"/></svg>