<svg id="icon" xmlns="http://www.w3.org/2000/svg" viewBox="0 0 400 400"><defs><style>.cls-1{fill:#626363;}</style></defs><path class="cls-1" d="M382.08,111.16a79.47,79.47,0,0,0-.23-15.8c-.38-2.71-1.12-3.83-4-4.1-2.65-.25-5.33-.2-8-.44s-5.25-.06-7.84-.36a140.69,140.69,0,0,0-15.6-1.22c-4.12,0-8.27,0-12.34-.29-5.64-.36-11.3-.52-16.93-1-2.22-.18-4.28,1-6.37.5a27.54,27.54,0,0,0-5.91-.45c-6.53-.3-13.07-.4-19.61-.61-8.27-.26-16.55,0-24.81.14-4.58.1-9.2-.33-13.76.25-2.59.34-5.14-.19-7.73-.15-10.2.18-20.4.8-30.62-.21-9-.89-18.09-.25-27.14-.31-6.6,0-13.21.6-19.82.72-10.1.17-20.21.27-30.31.66-2.47.1-3.53,2-5.15,3.29s-.08,1.58.26,2.3c.07.14,0,.51-.12.53-1.73.5-.92,1.81-.91,2.83.09,4.74.36,9.48.21,14.21,0,1.64.55,3.56-.82,5-.92.6-.26-1-1-.7-2.62.51-5,3.22-7.94.88-2.55,1.13-5.19.14-7.79.33-7.68.56-15.37,1-23,1.46-2.48.17-5,.45-7.43.72-.78.08-1.81.22-2,1.06-.32,1.62-1.64,1.83-2.76,2.17-6.28,2-12.74,3.26-18.74,6.21C49,131.27,44,133.44,41,138.27a9.16,9.16,0,0,1-2.88,2.8,30.76,30.76,0,0,0-6.8,6.63c-.81,1-1,1.89,0,2.61a1.33,1.33,0,0,1-.15,2.44c-2.05,1.06-2.14,2.93-2.36,4.75a5.44,5.44,0,0,1-1,2.86l-.21.24-.22-.23c-.35-.44.2-1.27-.53-1.47s-1,.4-1.28.89c-.52,1-.22,2-.24,3-.08,3.94.51,8-2.15,11.45a1.37,1.37,0,0,0-.15.66,180.26,180.26,0,0,0-1.91,21.9c-.07,4.58-.27,9.16-.57,13.73-.47,7.42-1.12,14.82-1.14,22.27,0,3.11.65,6.25-.18,9.41a19.53,19.53,0,0,0-.11,8.34,12,12,0,0,1,0,1.7c.18,4.61-.34,9.25.41,13.85.08.53.19,1.27-.43,1.52-2.29.95-1.53,1.53.09,2.43.7.39,1.44.89,2.2,1.38-.75.75-1.56.21-2.28.36-1.11.23-1.95,1.82-1.26,2.11,1.36.55,1.22,1.82,1.94,2.54s2-.08,2.49,1.31c.12.37.78.18,1-.32a1.38,1.38,0,0,1,2.25-.57c1,.83,2.55,0,3.44,1.19.23.29.58.45,1-.05,1.24-1.32,3-1.17,4.63-1.31,4.14-.38,5,.08,5.29,4.28.4,5.13,1.93,10,3.15,14.9.57,2.32,1.43,4.63,4.44,4.92A2.22,2.22,0,0,1,49.19,302c2.14,3.69,6,5.32,9.16,7.88a5.75,5.75,0,0,0,2.84,1c3.24.51,6.43,1.3,9.68,1.68a42.56,42.56,0,0,0,14.55-.32c4.38-1,8.77-2.43,12.46-5.08,4.32-3.09,8.57-6.26,11.23-11.19,2.52-4.68,5.35-9.19,7.54-14a4,4,0,0,1,4.28-2.58c6.36.09,12.72-.08,19.07-.09a16.24,16.24,0,0,0,5.34-.75,6.79,6.79,0,0,1,2.27-.33c5.52,0,11,0,16.56-.24,11.31-.45,22.63-.33,33.93-1.34a85.84,85.84,0,0,1,15.29.2c2.07.18,4.15,0,6.25.28a59.56,59.56,0,0,0,15.15-.08c3.25-.36,3.45-.41,3.92,2.82a24.4,24.4,0,0,0,4.15,10.65c5.78,8.2,13.18,14.23,23.36,16.13.46.09.93.1,1.22.49,1.45,1.89,3.52,1.78,5.57,1.72,1.59,0,3.18-.11,4.78-.15a32.16,32.16,0,0,0,14-3.43c5.76-3,11.15-6.54,14.93-12,2.72-3.9,5.2-8,7.8-11.95.51-.77,1.19-1.74.77-2.49-1.22-2.19.06-2.2,1.61-2.15a107.81,107.81,0,0,0,18.39-1.08c1.95-.27,4.4-.94,5.89,1.48a1.7,1.7,0,0,0,1.15.54c1.84-2.18,4.27-.44,6.39-.88a22.61,22.61,0,0,1,9.16,0,16.17,16.17,0,0,0,8-.09c1.94-.56,4.05-1.51,5.89-1.19,2.16.37,2.57-.49,2.9-2,.14-.65,0-1.29,1-1.42.64-.09,1.31-1,1-1.56-.84-1.4,1.47-2.37.22-4-.52-.69.72-2.68,1.14-4.08a3.73,3.73,0,0,0,.07-.68,150.52,150.52,0,0,0,1-17c-.06-2.42-.62-4.91-.5-7.2.48-8.48,1-16.94.93-25.43,0-3.06,0-6.12.17-9.17.36-8,.86-16.06,1.17-24.09.29-7.52.55-15,.63-22.56.07-6.34-.2-12.68,0-19C381.7,128.53,381.55,119.84,382.08,111.16Zm-257.92,9,.07.2-.19,0ZM94.63,280.66a.65.65,0,0,1-.2,0l-.07.07,0,0,.1,0a3.45,3.45,0,0,0,.26-.28C94.68,280.51,94.68,280.62,94.63,280.66Zm-1.1-2.35c-1.77,3.4-3.1,7-4.92,10.4-1.15,2.12-2.58,4.31-5.7,3.72-1.15-.21-2.21.47-3.28.81-3.5,1.12-6.78,1.23-9.91-1.21a78.13,78.13,0,0,1-8.51-7.21,5.23,5.23,0,0,1-1.79-3.88c0-2-1.47-3.83-.47-5.89,1.56-3.23,2.27-6.8,4.08-9.92.63-1.08,1.3-2.26,2.63-2.5,4-.73,7.52-3,11.39-4.2a7.05,7.05,0,0,1,8.39,3.75,3.4,3.4,0,0,0,.89,1.4A6,6,0,0,1,88.6,268c2.09-2.48.66-4.4.18-6.31a.61.61,0,0,1,.15-.94C94.33,264.88,96.37,272.84,93.53,278.31Zm30.91-124.92c-.19,6.54-1.15,13.06-1.13,19.59,0,5.45-.67,10.92.18,16.38a42,42,0,0,1,.07,6c.06,4.33.29,8.66.18,13-.11,4-.12,8-.54,11.94-.25,2.46-.06,5-.07,7.44q0,14.7,0,29.41c0,3.07-.07,2.75-3.17,3.26-1.28.22-1.7-1.78-2.83-.58-1.32,1.42-1.88-.53-2.75-.58-2.56-.15-2.29-2.69-3.58-3.85.34-3.53-2.28-5.38-4.5-7.17-2-1.58-3.53-3.49-5.31-5.2-5.66-5.44-12.12-8.28-20-7.53a46.13,46.13,0,0,1-6.11.07c-6.69-.26-12.72,2.11-18.51,5a16.26,16.26,0,0,0-5.91,4.92c-2.54,3.46-5.56,6.58-7.46,10.51a2.53,2.53,0,0,1-2.77,1.52c-1-.1-2,0-3.13,0-.54-3.2,0-6.36.07-9.52.12-4.44.19-8.88.44-13.31.36-6.41.91-12.81,1.3-19.21.23-3.86.11-7.74.21-11.6a113.53,113.53,0,0,1,1.07-12.49c.62-4.5,1.26-9,2.2-13.41.72-3.44,1.55-6.86,2.23-10.31a9.21,9.21,0,0,1,2-3.85c3.29-4.29,5.67-9.19,9.62-13.06a40.36,40.36,0,0,1,22.06-11.08c6.92-1.2,13.87-2,20.84-2.53,6.39-.49,12.82-.55,19.2-1.32a39.74,39.74,0,0,1,4.76,0l1.18,1.12c.48-.18.49.55.82,1C125.61,143.05,124.59,148.2,124.44,153.39ZM294.25,277.08c-.57,1.3-1.92,1.23-2.46,2.53-1.84,4.51-5.92,6-10.27,7.27-6.85,1.95-12.87,0-18.62-3.54a5.88,5.88,0,0,1-2.31-2.86,44.21,44.21,0,0,0-1.77-4.39c-3-5.6-.9-10.74,1.41-15.8a8.72,8.72,0,0,1,2.89-3.27,42.3,42.3,0,0,0,5.46-4.56c2.3-2.39,5.41-2.77,8.49-2.56,2.82.2,5.46,1.3,8.15,2.19,2.42.81,3.36,3.15,5.76,4.42a12.91,12.91,0,0,1-1.67.49.82.82,0,0,0-.76.94,1,1,0,0,0,.9.88c.11,0,.24.08.33.05,3.31-1.25,3.86,1.44,4.44,3.42C295.66,267.17,296.43,272.08,294.25,277.08Zm65.95-82.36a.26.26,0,0,1-.25.07c-.1,0-.17-.15-.25-.22l-.68,0a28.32,28.32,0,0,0-.09,3c0,.56.41,1.23-.1,1.58-1.74,1.22-1.33,3-1.32,4.65q.06,12.39.25,24.76c.09,6.07.32,12.13.39,18.2,0,2.48-.33,5-.25,7.44.06,1.89-1.78,1.7-2.27,1.67-3.42-.23-6.72.48-10,1-6.33,1-12.7.45-19,.74-2.16.1-4.32-.15-6.48-.14a2.72,2.72,0,0,1-2.7-1.5c-2.28-3.61-4.74-7.11-7.25-10.56-1.11-1.53-2.92-2.53-4.1-3.87-2.13-2.42-4.85-4-7.05-6.23a16.81,16.81,0,0,0-5.32-3.53,49.44,49.44,0,0,0-13.6-3.95A34.28,34.28,0,0,0,266.13,229c-3.67,1-7.56,2.37-10.73,4.77a107.14,107.14,0,0,0-8.3,7,36.08,36.08,0,0,0-9.47,14.32c-.75,2.06-1.78,2.4-3.68,2.41-7.8.05-15.58-.4-23.37-.63q-13.46-.39-26.91.29c-3.82.19-7.61,1.36-11.46.95-6.09-.66-12.22-.34-18.31-.94a71.85,71.85,0,0,0-8.55.09c-1.44,0-1.82-.19-1.81-1.53,0-6.87-.35-13.75-.61-20.61-.26-6.55.15-13.06.35-19.57.22-7.12.25-14.25.23-21.37,0-2.59-.2-5.22-.42-7.81-.81-9.35.61-18.62.88-27.93.26-9.06.23-18.12.53-27.17.14-4.46-.41-9,.23-13.35.58-3.88.68-7.74,1-11.6a115.22,115.22,0,0,1,22.71-.56c8.86.65,17.7.18,26.54.53a87.16,87.16,0,0,0,17.33-.78c7.27-1.18,14.5-.48,21.73-.5,9.29,0,18.57.63,27.87.8,5.87.11,11.76-.12,17.64-.2a3.14,3.14,0,0,0,1.35-.11c3.11-1.72,6.37-.51,9.56-.55,5.47,0,10.94-.13,16.41-.13,1.12,0,2.29-.4,3.27,1,.5.73,2.32,1,3.42.77a44.27,44.27,0,0,1,9.41-.21c4.23.11,8.48-.46,12.65,0,4.38.51,8.78.8,13.13,1.47,2.79.42,5.62.43,8.4,1,2.3.44,2.31.31,2.42,2.75a169.82,169.82,0,0,1-.52,17.62c-.27,5.12.19,10.18.41,15.28.27,6.57,1.25,13.09,1.29,19.68,0,7.15.35,14.29.42,21.44C361.16,188.71,361.32,191.79,360.2,194.72Z"/></svg>