<svg id="icon" xmlns="http://www.w3.org/2000/svg" viewBox="0 0 400 400"><defs><style>.cls-1{fill:#626363;}</style></defs><path class="cls-1" d="M90.89,178.42a44.87,44.87,0,0,0,9.83,0c4.17-.38,8.25.55,12.38,1,6.48.73,13.05,1,19.53-.59a8.37,8.37,0,0,1,4.68.29,15.63,15.63,0,0,0,8.27.28c9.08-2.11,18-.95,27,.23,2.42.32,4.76,1,4.31,4.34a3.74,3.74,0,0,0,1,2.73,4.62,4.62,0,0,1-.51,6.49c-2.54,2.28-2.63,5-1.86,7.54a13.56,13.56,0,0,1,.11,6.78c-.79,4.28-1,4.38-5.41,5.41-8,1.88-16.15,1.54-24.22,2.26-18,1.59-36,1.13-54,1.35A23.65,23.65,0,0,0,78.81,221c-4.35,3-5.92,7.34-6.07,12.21-.1,3.47,2.65,5.53,5.58,6.12,5.47,1.12,10.26,5.47,16.39,3.57a2.44,2.44,0,0,1,2.16.73c1.61,1.32,3.14,1.53,5.41.87,4.14-1.19,5.45.13,4.8,4.39-.59,3.93-1.21,7.72,0,11.7.57,1.81,0,3.87-.59,5.84-.63,2.18-1.51,4.71,1.23,6.39a1.11,1.11,0,0,1,.13,2c-2.76,2.2-5.33,4.89-9.33,4.58-8.76-.7-17.52.06-26.23.45-10.47.46-20.44-1.6-30.5-3.62a13.45,13.45,0,0,1-7.44-4.68c-5.08-6-10.3-11.82-13.52-19.31-3.77-8.77-2.83-17.5-1.55-26.31C20.94,214.78,28.25,207,35,198.62s15.73-12.55,24.89-16.47C69.57,178,80.16,178,90.89,178.42Z"/><path class="cls-1" d="M266.47,230.44a130.14,130.14,0,0,1,21.36,3c3.29.7,3.72.19,4.12-3.06.24-1.89-1.22-5.26,1.86-5.16,2.44.08.95,3.27,1.2,5.05s-.24,3.65,2.1,4.39c1,.31,1.1,1.49.33,1.75-2.84.94-1.81,2.92-1.7,4.84,1,17.2.64,34.41.07,51.61-.32,9.58-.55,19.16-.74,28.74a31.56,31.56,0,0,1-2.78,12.63A47.77,47.77,0,0,0,289,344.87a24.64,24.64,0,0,1-3.32,7.77,91.63,91.63,0,0,1-5.58,7.65c-3.57,4.84-9.36,6.21-14.28,8.89-1.64.9-4.55,2.48-5.25,2-4.54-3.14-8.39,1.32-12.75.63-4.84-.78-10.18.89-14.8-.36-7.08-1.93-14.79-2.88-20.78-7.58-3.81-3-6.75-7.06-10.31-10.4-6.15-5.77-8.79-12.78-10.23-21.1-1.65-9.51-2-19.29-5.1-28.56-.62-1.86-1.45-3.91-.27-5.76s3.91-2.31,4.47-4.8a.6.6,0,0,1,.54-.16c6.51,3.09,11.18-3.29,17.08-3.3a24.06,24.06,0,0,1,5.31.22c1.57.36,3.53.58,3.39,3.26-.06,1.22,1.09,3,2.43,3,3.93-.07,3.44,2.48,3,4.76-2,11.89,3.69,20.41,11.92,27.9a4.87,4.87,0,0,0,3.8,1.24,64.18,64.18,0,0,0,9.38-1.1c4.34-.85,4.23-.82,5.28-6a27.93,27.93,0,0,1,2.29-5.45c2.53-5.66,2.7-11.54,3-17.7.33-7.88.91-15.8.59-23.66-.44-11.17.84-22.36-.95-33.54-.89-5.61-.17-11.46-1.45-17.11a1.58,1.58,0,0,1,.89-1.95c1-.49,1.22.44,1.68,1,2.13,2.61,1.23,5.7,1.4,8.61.08,1.27.18,2.44,1.83,2.42,1.15,0,2.46.19,2.94-1.34a9.35,9.35,0,0,0,.44-1.69A2.74,2.74,0,0,1,266.47,230.44Z"/><path class="cls-1" d="M216.73,101.76c-7.2.68-14.46-1.3-21.67.71-2.32.64-4.2-1.73-6.43-2.14a1.83,1.83,0,0,1,1.43-1.91,2,2,0,0,0,1.7-1.56c-.24-1.42-2-.56-2.66-1.66a5.29,5.29,0,0,1-.5-3.45c.58-4.82-.86-9.43-1.37-14.14-.45-4.1-3.67-6.32-6.54-8.65a2.54,2.54,0,0,0-2.26-.43c-3.28,2.26-5.85,0-8.61-1.14s-4.35,1.18-5.68,2.59a23.39,23.39,0,0,0-6.79,17.28c.26,8.91-.38,17.83.46,26.74a40.42,40.42,0,0,0,.49,4.11,154.43,154.43,0,0,1,2.89,36.59c-.08,2.28.1,4.8-1.89,6.63-2.93-1.1-1.27-3.81-2-5.68-1.61-7.36-.82-14.87-1.22-22.3a20.91,20.91,0,0,0-.92-5.69c0,1.37,1,2.44.92,3.79-.08,8.1.46,16.17.42,24.25-.51,1-1.1,3.08-2.1,2.22-2.77-2.41-4.5,2-6.87.61-2.74,6.3-9.31,4.7-14.09,6.78-3.57,1.56-7.35,1.23-11,1,0-7.85.22-15.55-.06-23.23-.36-9.95-.38-19.91-1.4-29.84-1.53-15-.17-30,1.66-44.83a68.25,68.25,0,0,1,7.61-24.11c2.52-4.65,5.83-8.91,8.83-13.2,3.61-5.16,10-7.57,16.39-8.69a58.11,58.11,0,0,1,25.12,1.15c5.13,1.35,10.2,2.73,14.95,5.23,1.78.94,3.89,2,4.68,3.39a19.73,19.73,0,0,0,7.52,7.33c2.16,1.29,1.9,3.81,3,5.62.73,1.16.12,3.39,2.81,2.28,1-.4.95.86,1,1.59a27.6,27.6,0,0,0,3.47,9.38,25.56,25.56,0,0,1,3,10.73,144.62,144.62,0,0,0,2,17.46c.78,4.41-1.21,8.88-1.8,13.34a2.55,2.55,0,0,1-2.71,1.93c-.84-.31-.64-1.25-1.07-1.81C217.63,100.77,217.66,101.47,216.73,101.76Z"/><path class="cls-1" d="M308.76,113.29c.49-5.19,5.34-6,8.46-6.25a89.57,89.57,0,0,1,34.58,3.78,24,24,0,0,1,9,5.52,24.1,24.1,0,0,0,6,4.67,3.2,3.2,0,0,1,1.76,1.42c4.57,8.87,10.42,17.3,11.59,27.45.45,3.91-.25,8.11-.19,12.18.12,7.35-2.6,13.71-6.56,19.68a6,6,0,0,0-1.29,2.57c-.39,7.08-5.41,10.83-10.62,14s-10.94,5.4-16.45,8c-.35.17-.89.62-1,.52-4.25-3.31-7.51,1.2-11.31,1.49-4.1.3-8.1,1.76-12.19,2.18-8.08.82-16.08,2.17-24.22,2.57-13.41.65-26.79-.13-40.17-.48-4.69-.13-9.34,0-14,.11-4.26.12-5.64-.89-7.06-4.6a29.24,29.24,0,0,1-1.68-12.83c.27-3.6,1.81-7.49-3.59-9-1.32-.37-.83-1.9.4-2.71.64-.41,2,.39,1.87-1.34-.37-3.66-.31-3.84,2.77-3.87,8.94-.09,17.89-.24,26.83.05a141.82,141.82,0,0,0,18.44-.18,25.24,25.24,0,0,1,8.81.6,20.76,20.76,0,0,0,11-.25,28.35,28.35,0,0,1,11.09-1.27c4.07.52,7.83-.5,11.61-1.52,2.66-.72,4.46-2.53,6.44-4.54a27.45,27.45,0,0,0,6.39-10.56c.66-1.9,1-3.66-.93-4.69-2.19-1.19-2.9-3.23-3.59-5.24a9.2,9.2,0,0,0-4.9-5.71c-4.27-1.88-8.4-4.43-13.66-3.85.1-2.2,3.18-4.53-1.21-6.24-.34,0-.34.93-.41,1.95s-.53,2.06-1.81,1.83-1.19-1.43-1.13-2.37c.44-6.9-1.87-13.39-3-20.05-.14-.85-.9-1.76-.42-2.64.59-1.1.13-3.12,2.07-3.11,1.36,0,1.33,1.81,2.29,2.49Z"/><path class="cls-1" d="M154.91,226.05c.29-1.18.55-2.4,2.19-2.22,1.24.13,1.57,1.13,1.68,2.11.51,4.51,1.2,9,1.36,13.54.54,15.83,2.34,31.62,2,47.48-.46,19.12.64,38.23.46,57.34a194.48,194.48,0,0,1-1.73,22.49c-.57,4.47-2.37,6.15-7.42,7.26a4.09,4.09,0,0,0-2.42,1.52c-5.79,6.95-14,6.19-21.77,6.65-1.58.09-3.28-1.21-4.32-2.84-1.48-2.31-1.64-5.56-5.26-6.39-1-.23-.73-2.44-.49-3.85,2.08-12.66,2.52-25.46,3.42-38.22.42-5.9.07-11.84.35-17.75.94-19.42-.91-38.82-.54-58.24.1-4.92-1.51-9.81-1-14.76.24-2.36-1.35-5.32,1.77-7,.48-.27.28-1,.13-1.59-.81-3.5-.67-3.74,2.94-3.9,9.08-.4,18.13-1.33,27.24-1.31,1,.44,1.3,1.09.56,2C155,227.84,154.15,226.63,154.91,226.05Z"/><path class="cls-1" d="M295.67,166.83c-3.62-4.9-3.59-4.79-10.17-2.79-5.79,1.77-11.15,5.24-17.57,4.62-1.25-.13-2.83,1.47-3.7-.38-1-2.07,1.93-2.15,2.26-4.08-2.76-.4-5.71-2.17-7,2.32-.11.36-1.21.83-1.46.67a3,3,0,0,1-1.36-1.75,83.52,83.52,0,0,1-.51-9.48c.2-9.53-1.65-18.86-2.76-28.25-1.09-9.21-1.82-18.42-2-27.66-.23-12.38-.06-24.77,0-37.15,0-7.2-.75-14.42.43-21.61.31-1.84-.68-4,1.61-5.3.78-.44.6-1.33,0-2-1.41-1.55-.39-3.45-.57-5.15-.69-6.49.37-7.6,6.78-6.35a10.32,10.32,0,0,0,7.31-.87c3.18-1.94,6.7-2.1,10-3.27,3.68-1.32,6.14-.3,8,2.76,1.31,2.12,2.69,2.54,4.81,1,1.05-.79,2.61-.89,3.79-1.56.93-.52,1.77-1.14,2.56-.11s2.24,2.31,1.59,4.06c-3.78,10.17-3.58,20.85-4.31,31.46-.9,12.81-.91,25.65-1.66,38.48-.77,13.16-.7,26.45,1.28,39.58,1.53,10.15,1.66,20.48,4,30.52A1.8,1.8,0,0,1,295.67,166.83Z"/><path class="cls-1" d="M34,144.76c-.81,3.74,1.24,6.56.28,9.51a14.91,14.91,0,0,1-1.34,2.34,4.94,4.94,0,0,1-1.8-3.52c-.16-3.31-.11-6.38-3.73-8.46-2.16-1.24-.66-4.5-1.63-6.71a16.22,16.22,0,0,1-.8-11.47c1.65-5.8,1.87-12.07,6.16-16.73-1.41-2.71-4.27-1.2-5.93-2.62-.77-.66-1.49-1.33-1.14-2.49a1.6,1.6,0,0,1,1.9-1.06,58.08,58.08,0,0,1,8.77,1.1,59.46,59.46,0,0,0,13.79,2c5.32.08,10.61,1.1,15.84,1.84,7.53,1.07,15.05,0,22.5,1,7.88,1.11,15.79.8,23.69.85a6.23,6.23,0,0,1,2.88.45c1.39.77,2.22,2.15.16,3-3,1.22-3.67,2.73-1.41,5.21-1.73,5.69.12,11.32.35,17,.16,3.72-1.8,5.93-4,8.65-2.71,3.37-5.35,3.24-9.1,3.08s-7.41,1.15-11.1.61c-8.22-1.19-16.58-.5-24.75-2.09-4.06-.78-8.11.39-12.23.16C45.63,146.05,40,145.58,34,144.76Z"/><path class="cls-1" d="M309.18,239c-.25-1.27-1.34-2.75,1.5-2.45,6.48.67,13,.75,19.49,1.43,8.46.88,17,.16,25.51-.46,4.91-.36,10.49-1.2,14.95,2.77.74.66,2.27.42,3.41.67,5.89,1.29,8.52,4.55,7.58,10.33-.88,5.37-1.21,11-4.37,15.74-1.48,2.2-.49,4.71-1.52,6.85-.57,1.17-1.39,3.3-2.82,1.8-2.51-2.61-4.61-.36-7.58-.2,2.72,1.66,5.87,1.79,7.2,4.2-.66,1.4-1.5,1.25-2.22,1a117.93,117.93,0,0,0-17.88-3.79c-3.13-.44-6.1,0-9.09,0-11.72-.18-23.48-.1-35.08,2.06-.88.16-1.54.38-1.77-.61-.11-.51,0-1.39.28-1.63,5.58-4,2.25-8.87.79-13.06-.87-2.49-1.41-4,.17-6.4,2.35-3.53,1.6-7.63.8-11.51-.32-1.59-1.1-3,.45-4.32C311.72,240.84,309,239.8,309.18,239Z"/><path class="cls-1" d="M237.34,246.24c1.88,2.06,5.44-.8,6.83,2.16,1.17,2.48-.46,5-.42,7.61.06,5.45-.6,11,2.58,16,.77,1.21-.29,1.78-1,2.38a4.07,4.07,0,0,1-2.83.7c-3.07,0-6.34-.72-8.4,2.6-.36.57-1,.31-1.63.28-15.18-.85-30.36-1.84-45.55-2.35-2.55-.09-5.24-.8-7.93.16-1.12.4-4,.46-1.55-2.26,1.4-1.56.26-2.21-.79-3.25a34.92,34.92,0,0,1-10.79-24.77c0-1.1-.32-2.56,1.49-2.59,1.49,0,2,1.11,2.2,2.35a52.9,52.9,0,0,0,2.57,11.17,43.26,43.26,0,0,0,2.06-10.59c.4-3.78,2.44-6.54,6.08-6.34,8.9.48,17.8-1,26.72.6a54.25,54.25,0,0,0,17.75-.16c6.16-.93,12.29-1.11,18.78.79l-6.24,4.24C237.36,245.36,236.26,245.85,237.34,246.24Z"/><path class="cls-1" d="M236.77,107.2c2.91,4,3.11,7.31,3.18,10.58.14,6.52.14,13.05,0,19.57,0,1.65.62,4.26-2.55,4.34-.24,0-.7.58-.67.85.59,5.57-3.14,5.41-7,5.48-5.68.11-11.36.34-17,.76-14.33,1.07-28.7-2.13-43,.48a4.42,4.42,0,0,1-2.27-.27c-.89-.34-1.94-.77-1.7-2.07.21-1.09,1.05-.89,1.82-.78a1.5,1.5,0,0,0,.59,0c5.47-1.27,6-2.11,3.81-7.42a10.77,10.77,0,0,1-.14-8.5c1.2-3.41,2.1-7.31-.32-10.78a1.83,1.83,0,0,1,.11-2.59c.74-.91,1.44-1.9.38-3.15-.68-.81-2.35-1.46-1.3-2.83a3.44,3.44,0,0,1,3.75-1.31c3.7,1.31,7.47.6,11.21.69,7.23.17,14.45-.48,21.67,1.18,7.63,1.75,15.5.32,23.26.66C233.48,112.26,235.86,111.18,236.77,107.2Z"/><path class="cls-1" d="M193.1,168.71c.15-2.64.11-5-3.72-3.43-1,.43-1.93-.17-2.08-1.4-.13-1,0-1.94,1.34-2.2s2.86-1.25,4-.88c4.81,1.64,9.88.4,14.67,1.67a5.5,5.5,0,0,0,3.5.18c4.31-1.8,7.49,1.07,10.92,2.64,2.19,1,1.88,3.51,1.66,5.29-.91,7.31.87,14.52.63,21.73-.31,9.27-.88,18.53-.63,27.81,0,1.08-5.31,1.95-6.34,1a15.47,15.47,0,0,1-1.6-2.09c-1.85.95-.82,2.61-1.37,3.8-1,2.12-1.36,5.54-4.49,1.48-.73-1-2.16-.16-3.32,0-5.82.73-11.67.56-18.23.37,3.52-6,8.91-1.56,13.13-3.9-3.77-1.19-8.42-.39-9.33-5.44-1.48.82-.91,3.56-3.14,3-1.34-.34-1.39-1.74-1.31-3,.26-4.15-.54-8.34.57-12.47a7.14,7.14,0,0,0,.07-2.95c-1.62-9.49.94-18.89.54-28.35-.06-1.47.15-2.82,1.4-3.69,1-.68,1.84-.46,2,.93a46.27,46.27,0,0,1,.08,4.71C192.13,171.85,191.84,170.1,193.1,168.71Z"/></svg>