<svg id="icon" xmlns="http://www.w3.org/2000/svg" viewBox="0 0 400 400"><defs><style>.cls-1{fill:#626363;}</style></defs><path class="cls-1" d="M133.29,229.57H133l.55.07Z"/><path class="cls-1" d="M366.9,155.54c-.31-1.09,2-2.31.12-3.08-1.24-.52-1.69,1.25-2.63,1.85-.28.17-.47.22-.71,0a1.8,1.8,0,0,1-.43-2.24c.44-.88,0-1.49-1-2-5.83-3.19-9.76-8.23-14.76-12.23-1.27-1-1.34-1.93-1.41-3.36s-2.81-.33-3.82-1.94c-1.35-2.15-3.45-3.85-5.35-5.67-5.42-5.21-11.56-9.71-17.18-14.72-1.27-1.13-3-1.26-4.31-2.48-2.92-2.77-6.16-5.28-9.33-7.83q-17.88-14.39-35.81-28.73C268.92,72,267.43,71,266,69.91s-3-2-4.3-3.21-4-2-3.79-3.39c.57-3.25-2.3-1.41-3.26-2.22-.52-.44-.94-.81-.8-1.5s.44-1.28.21-1.75c-.41-.86-1.15-1.81-2.24-.48s-1.69.25-2.1-.51.3-1.39.33-2.08a1.69,1.69,0,0,0-1.42-1.57c-1.28-.36-.93.84-1.35,1.31-.17.18-.36.34-.6.56-.84-1.14-2.41-2-1.58-3.7a1.21,1.21,0,0,0-.64-1.83c-1-.43-1.31.2-1.66.94s-1,.57-1.51,0a9.37,9.37,0,0,1-1.34-1.33c-1.07-1.7-3-2.78-4-4.43s-3.4-2.52-3.64-5c-.2-2-3.82-1.35-4.81-3.26-.11-.2-.38-.33-.55-.52-3.48-3.89-7.74-7.12-11.62-10.66-5.7-5.19-11.72-10.11-17.51-15.23-.38-.35-.64-1.21-1.49-.5,0,.1.09.21.13.31.19.49,1.1,1,.38,1.42-.4.24-1.11-.28-1.27-.91h0c-1.34-.47-2.4-1.07-1.83-2.64.17-.44.22-1-.68-.9-1.85.1-3-1.64-5.16-1.45a5.08,5.08,0,0,1-2.26,3.77,18.52,18.52,0,0,0-2.94,2.93c-.92,1.11-2,1.26-3.47,1.53-.91.18-.27,2.29-1.42,3.37-5.8,5.42-11.41,11-17.22,16.41C149.38,43.83,138,54.09,126.9,64.55a125.63,125.63,0,0,0-12,12.57A216.05,216.05,0,0,1,96.84,97.64c-2.72,2.63-5.83,4.91-8.37,7.73-4.77,5.28-9.39,10.69-14.27,15.88-9.25,9.84-18.91,19.36-27.56,29.64-4.25,5-9.22,9.58-12.79,15.05a9.19,9.19,0,0,0-1.46,6.8c1.15.23,1.17-1.67,2.4-.73.85.64.43,1.21-.13,1.8s.11,1.14.51,1.47a34.61,34.61,0,0,0,3.51,2.92,48.36,48.36,0,0,1,6.12,4.52,175,175,0,0,1,12.76,12.79c4.16,4.51,8.2,9.11,12.31,13.65,6,6.58,12.47,12.77,18.66,19.19,4.75,4.94,4.7,5,5,11.83,0,.48,0,1,.1,1.44a63.5,63.5,0,0,1,.46,15.09,6.89,6.89,0,0,0,.2,3.57,10.68,10.68,0,0,1,.76,5.61,37.31,37.31,0,0,0,1,10.33,17.37,17.37,0,0,1,.36,4.29c-.07,2.56-1.19,5.22,1,7.53.17,4.69,1.69,9.19,2.45,13.79a192.53,192.53,0,0,0,4.61,19.62c1.94,7.11,4.24,14.13,6.79,21.06a39.82,39.82,0,0,0,6,11.27c1.66,2.11,3.48,4.06,4.62,6.6a26.54,26.54,0,0,0,11,12.34c3.89,2.28,7.79,4.51,10.64,7.93.55.66,1.78,1.32,2.47.91,2.59-1.59,4,.91,6.07,1.22s1.69,3.33,3.25,3.65c1.74.36,3.69-.17,5.34,1,5.05,3.63,11.06,4.72,17.28,5.42,4.2.48,8.52-.22,12.61,1.15h0l1.06,0c2.52-.29,4.9.84,7.44.58,6.42-.63,12.79-1.22,19-3.05,3.69-1.08,7.52-3,11.75-1.48.36.13,1-.33,1.46-.5,3.44-1.18,6.61-3,10.32-3.51,2-3,6.34-2.55,8.94-4.71.68-.57,1.68-.95,2.08-1.64,2.11-3.54,5.33-6.26,8.55-8.85A60.36,60.36,0,0,0,275.63,354c1.37-2.34,2.43-4.86,4.1-7a71.92,71.92,0,0,0,6.76-10.95c.93-1.76,1.63-3.79,3.05-5.18,3.15-3.1,4.56-6.79,5.53-10.72-.58-.92.4-1.14.87-1.58a.77.77,0,0,1-.68.06l-1.6.15c.33-.84,1-.32,1.6-.15l.68-.06c.35-1.53,1.71-3.13-.46-4.48-.16-.09,0-.66.09-1,.48-2.23.9-4.47,1.48-6.68a101.71,101.71,0,0,0,3.11-25c0-7.05-.41-14.1.58-21.13a48.45,48.45,0,0,0,.77-6.42c0-6.46.91-12.94.15-19.36-.37-3.22,1.22-5.33,3.19-7.38,1.09-1.15,2.22-2,2.74-3.64a3.45,3.45,0,0,1,3.46-2.56,3.41,3.41,0,0,0,2.95-1.64c2.11-2.93,5.06-5.26,7.11-8.24,1.25-1.83,2.52-3.85,4.36-5.1a37.29,37.29,0,0,0,8.33-8.15c1.83-2.32,3.69-4.67,6.7-5.92.47-.2,1.3-.39.93-.89-1.33-1.79.53-2.62,1.28-3.71,6.2-9.13,14.38-17,20.18-26.41.5.27.83.46,1.16.62.7.34,1.47.93,2.21.44s1-1.46.56-2C365.51,158.41,367.32,157,366.9,155.54Zm-76,15.57c.49-.27,1,.07.95.68.07.45,0,.76-.66.58C290.61,172,290.07,171.59,290.92,171.11Zm.61,57.59a17.9,17.9,0,0,1,1.22,2.2c.19.5-.2.85-.78,1s-1.17-.1-1.21-.56C290.71,230.56,290.26,229.69,291.53,228.7Zm-.64-8,.37-.38c.27-.12.52-.07.57.2,0,.11-.18.38-.29.39A2.14,2.14,0,0,1,290.89,220.7ZM286,142c.26.12.59.19.64.33.12.38-.13.61-.56.51a.72.72,0,0,1-.47-.41C285.57,142.34,285.84,142.17,286,142Zm-4.11-26.68a.86.86,0,0,1,1,.3c-.13.19-.22.45-.41.57a.51.51,0,0,1-.84-.28C281.47,115.65,281.54,115.43,281.87,115.35Zm.8,57.81s-.21-.15-.26-.25.08-.16.13-.25.22,0,.28,0C283.06,172.83,283,173,282.67,173.16ZM282.15,154c-.21.11-.42.32-.63.31s-.41-.22-.62-.35c.21-.11.43-.31.64-.31S282,153.86,282.15,154Zm-.9-59.35-.14.18L281,94.6Zm-1.36,31.22c2.42,1.5,1.47,3,1.71,5.16C279.16,129.41,280,127.83,279.89,125.85Zm-.42,9.08c.72,0,1.53.35,1.51,1.19a1,1,0,0,1-.8,1.08,1.07,1.07,0,0,1-1.13-1.14C279,135.62,278.87,134.94,279.47,134.93Zm-2.78,48a.83.83,0,0,1,.52.48c.26.92-.61,1.12-1.23,1.46a1.56,1.56,0,0,1-1.67.6s0,0,0,.05h-.1L274,186c-.46-.46,0-.41.24-.46a.21.21,0,0,0,0-.06h.05c-.06-.41.12-.66.62-.69.09-.22.1-.52.28-.63C275.77,183.77,275.6,182.67,276.69,182.91Zm-6.29-63.65a1,1,0,0,1,.64-1.15,1.14,1.14,0,0,1,1.37.41c.92,1.1,1.55,2.25-.16,3.3A3.21,3.21,0,0,1,270.4,119.26Zm1.78,8c0,.12-.58.37-.9.36a.62.62,0,0,1-.68-.64c0-.35.17-.67.9-.6A1,1,0,0,1,272.18,127.27Zm-1-14.82a1.22,1.22,0,0,1,.94-.44,3.06,3.06,0,0,1,1.34,3.36C271.9,114.72,270.66,114.07,271.19,112.45Zm1.68-4.2c-.19-.26-.15-.74.42-.6.34.08.6.42.89.64-.17.23-.29.39-.42.55C273.46,108.65,273.05,108.51,272.87,108.25ZM262.34,77.08c1.33.19,1.75,1.3,2.6,1.89,2.32,1.62,3.67,4,5.92,5.72.81.62,2.41,1.53,1.63,3.08l.05,0-.1.1.11-.1s0,0,0,0c.23-.09.44-.31.76,0s.07.51,0,.73l0,0h0l.06,0c.68-.21,1.35-.36,1.64.52,0,0,.06,0,.1,0l-.08.06.08-.06,0,.07c.34,0,.6.17.59.52,0,.06-.24.18-.31.15a.45.45,0,0,1-.28-.67h-.05s0,0,0,0c-.71.27-1.14-.22-1.64-.52l-.13,0h0a1,1,0,0,1,0-.1,1.1,1.1,0,0,1-.73-.75l-.13.05a1.12,1.12,0,0,0,.05-.13c-3.62-2.11-6.26-5.25-9.78-7.49C261.67,79.61,262.14,78.3,262.34,77.08Zm4.82,91c-.22-.51.24-.56.59-.67s.77.15.84.54a.63.63,0,0,1-.6.75C267.49,168.73,267.31,168.38,267.16,168Zm.55,11.73c0,.06-.18.14-.28.21a3.53,3.53,0,0,1-.22-.59s.18-.13.28-.2A3.14,3.14,0,0,1,267.71,179.77Zm-5.93-78.24c1.18,2.12,4.84,3.18,2.49,6.33C260.3,105,260.21,104.77,261.78,101.53Zm.62,17.56s.16-.14.24-.21a1.7,1.7,0,0,1,.22.45s-.15.13-.24.2A1.65,1.65,0,0,1,262.4,119.09Zm.21,66a1.67,1.67,0,0,1-1,1.48c-.46.19-.66-.09-.69-.46-.05-.6,0-1.21.78-1.39C262,184.68,262.32,185,262.61,185.11Zm-1.28,5.43c.19-.55-.77-1.07-.08-1.6a1.08,1.08,0,0,1,1.42.18c.76.65-.32.94-.46,1.42a.78.78,0,0,1-.72,1,.74.74,0,0,1-.6-.28C260.69,190.9,260.86,190.63,261.33,190.54Zm-2.05-115.6c.1,0,.22,0,.29,0,.25.15.2.33-.16.46-.05,0-.21-.14-.27-.24S259.23,75,259.28,74.94Zm.62,117.84a.57.57,0,0,1,.7.62c0,.55.14,1.22-.73,1.4-.77,0-.81-.55-.81-1S259.23,192.85,259.9,192.78Zm-2-22.14a3,3,0,0,1-.57.21c-.06,0-.15-.12-.23-.2l.55-.22Zm-.47,28.57c0,.42-.36.6-.8.71-.72,0-.75-.5-.79-1a.55.55,0,0,1,.65-.65C257,198.37,257.47,198.61,257.41,199.21ZM255.77,71.69c.33-.08.63-.24.74-.16,1.58,1.1,1.81,2.13-.46,3.16A5.77,5.77,0,0,1,255.77,71.69Zm-1.42,16.65c-.13.23-.26.72-.46.75a.86.86,0,0,1-1-.77c-.08-.44.29-.52.64-.57S254.19,87.93,254.35,88.34Zm-1.47-19.48a.83.83,0,0,1,.63,1.07c-.08.25-.34.66-.74.48-.68-.14-1-.47-1-1S252.34,68.69,252.88,68.86Zm-.32,25.23c.35.11.54.46.43,1a.9.9,0,0,1-1,.67c-.16,0-.31-.6-.31-.92S251.83,93.86,252.56,94.09Zm-2.91,156a2.38,2.38,0,0,1,.49.22l-.27.24-.47-.25C249.49,250.19,249.59,250,249.65,250.05Zm-1.54-136.17c.36.12.6.33.53.7s-.08.75-.3.91c-.51.35-.5-.23-.58-.43A.87.87,0,0,1,248.11,113.88Zm0,24.27c-.4-.25-.33-.56-.16-.86.05-.1.21-.24.23-.23a.59.59,0,0,1,.35.8C248.44,138,248.22,138.06,248.08,138.15Zm.09,2.43s-.2-.14-.24-.24.08-.16.12-.25.2,0,.26,0C248.54,140.25,248.49,140.44,248.17,140.58Zm.17-11.55h0c.2.29.15.69-.17.69s-.38-.39-.18-.69c-.07-.88-.13-1.75-.24-3.17C249.08,127.19,248.11,128.16,248.34,129Zm-.43-9.12c.08-.06.16-.18.24-.18s.16.12.24.18l-.14.21Zm-.73,48.22q.39-6.18.77-12.37a2.33,2.33,0,0,1,0-2.09c0-.26,0-.53,0-.8a9.7,9.7,0,0,1-.06-4.29c.34-1.11-.44-2.34.68-3.86a8.12,8.12,0,0,1,.08,6.16h0a.25.25,0,0,1,0,.41c.62,5.66,2,11.33-.6,16.9h0c-.12,1.65-.25,3.3-.37,4.95,1.48,2.85.78,5.85.72,8.81l.09,1.33c0,.52-.07,1.05-.1,1.58a6.08,6.08,0,0,1,0,3.46,7.23,7.23,0,0,1,.12,1c0,.56,0,1.32-.86,1.22s-.75-.84-.54-1.38c.11-.31.46-.54.7-.81-.08-.43-.15-.87-.23-1.31-1.29-3.16-.48-6.41-.51-9.63,0-.44,0-.88-.07-1.33,0-1,0-2,0-3A13,13,0,0,1,247.18,168.13Zm.17,33.31c1.51,1.65,1.87,2.74.11,4C246.57,204.24,246.92,203.15,247.35,201.44ZM247,197c0-.5.15-.81.79-.71,1.09.27.77,1,.55,1.58a.63.63,0,0,1-.89.3C247,197.93,247,197.45,247,197ZM240.85,83.56c.2,0,.38.24.56.37-.19.11-.4.31-.57.29a1.88,1.88,0,0,1-.65-.38C240.41,83.74,240.64,83.55,240.85,83.56Zm-4.74-3.81A1.18,1.18,0,0,1,237.36,81l-.39.82c-.6-.26-1.25-.54-1.28-1.22C235.67,80.34,236,79.75,236.11,79.75ZM233.4,76c.07-.44,0-1,.73-1.09,1.33,0,.72.74.6,1.28s-.33,1.39-1,1.27C232.8,77.27,233.31,76.48,233.4,76Zm-4.79-16c0-.19.66-.38,1-.35s.71.3.49.77c-.12.28-.19.65-.72.57A.78.78,0,0,1,228.61,59.94Zm-1.28,8,.24.55-.29.18a2.78,2.78,0,0,1-.22-.54C227.05,68.1,227.23,68,227.33,68Zm-2.66-13c.54,0,1,.26,1,.74a.83.83,0,0,1-.84.93c-.35,0-.74-.59-.89-1S224.31,55.09,224.67,54.94Zm-1.42,8.34c.1,0,.18.15.27.24l-.14.22-.42-.25C223.06,63.41,223.16,63.28,223.25,63.28Zm-1.94,5c0-.78.46-1.14,1.16-.6s.37,1-.42,1.28C221,69.41,221.28,68.74,221.31,68.27Zm1.46,13.29a3.36,3.36,0,0,1-.56.81c-.37-.3-.65-.42-.65-.55a.9.9,0,0,1,.8-1C222.74,80.8,222.87,81.26,222.77,81.56Zm-1.81-8-.15.2-.09-.23Zm-1,5.1s.26.09.28.17c.12.48-.12.77-.6.92v.07h0l-.09,0-.14.5-.36-.29.5-.21,0-.09a.11.11,0,0,1,.06,0C219.62,79.39,219.57,79,220,78.7Zm-.47-14.19c.13.38-.08.61-.53.65s-.71-.28-.68-.67a.54.54,0,0,1,.77-.44A.8.8,0,0,1,219.5,64.51Zm-2.21-17.16a1.72,1.72,0,0,1,1.7,1.56c-.21.34,0,1.06-.83.89A1.92,1.92,0,0,1,216.59,48,.61.61,0,0,1,217.29,47.35Zm-4.46,37.77a16.39,16.39,0,0,1-.12,8.06C213,90.42,210.91,87.73,212.83,85.12Zm.85,12a3.62,3.62,0,0,1,.32.92c0,.16-.25.33-.39.5a3,3,0,0,1-.38-.84C213.21,97.57,213.48,97.38,213.68,97.14Zm-.25-35.09c-.19-1.11.83-2,.34-3.51,2.3,1.11,2.86,2.23,2.31,3.67-.17.47-.25,1.3-1.1,1.25A1.6,1.6,0,0,1,213.43,62.05Zm1.9-21.2.55.32c-.18.11-.36.3-.55.32s-.33-.19-.49-.3Zm-1.37,4a.52.52,0,0,1-.73-.48c0-.19.13-.55.26-.57.41-.06.64.21.77.55C214.16,44.58,214.11,44.86,214,44.9Zm-3.13-15.77a.09.09,0,0,0,0,.05,1.84,1.84,0,0,1,1.6,1.27c.46.1.89.23.91.76.37,0,.67.17.71.54,0,.06-.17.2-.26.2a.57.57,0,0,1-.67-.55l.22-.19-.22.19-.36.05-.28-.21c-.93-.45-2.05-.77-1.65-2.06h0s0,0,0,0a.62.62,0,0,1-.76-.68s0,0-.06,0l.05-.06s0,.05,0,.08c.5,0,.74.24.76.68C210.79,29.13,210.8,29.14,210.83,29.13ZM206.45,25a.38.38,0,0,1,.34.11.44.44,0,0,1-.07.46c1.11-.28,1.55.36,1.66,1.45h0v0c.64-.09.79.23.77.69h.08s0,0,0,.07c.5,0,.74.17.7.63H210l-.05.06s0,0,0-.06c-.48,0-.89-.05-.7-.63h-.07v-.06c-.65.16-.88-.1-.77-.69h0v0c-1.18.24-1.16-1.13-2.06-1.27h-.12l.1,0C206.1,25.39,206,25.12,206.45,25Zm-2.17,6.12a.72.72,0,0,1,1,.05c.79.78,1.56,1.58,2.34,2.37.78.18.93.72.93,1.34l0,0,0,0c.46,0,.78.16.73.64l-.24.25.24,0v-.22l.69.34a1.06,1.06,0,0,1,.89,1.28c.38,0,.65.12.67.48a.35.35,0,0,1-.24.22c-.4,0-.54-.24-.53-.58h0c-.68,0-1.21-.16-1.36-.84h0l-.36-.65c-.53,0-.71-.25-.75-.66h0c-1.18,0-1.55-.77-2-1.51-1.22.18-1.33-1-2.06-1.39C203.65,31.82,203.76,31.41,204.28,31.07ZM210.6,59.7c-1.16-2.21-.6-3.68.34-5.77C212.4,56.21,211.79,57.67,210.6,59.7Zm-6.06,32.56c.39-3.24-2.79-5-2.88-7.81C206,86,207.25,89,204.54,92.26ZM202.43,77a.75.75,0,0,1,1.18.43c.71.24,1.07.7.64,1.3-.23.32-.6,0-.73-.3a3.13,3.13,0,0,1-.6-.45C202.68,77.67,201.69,77.57,202.43,77Zm3.87-27.9c1.59,2.24,1.59,2.24.17,5.32C204.6,52.87,204.6,52.87,206.3,49.09ZM204,57.53l.25.27L204,58c-.08-.1-.24-.19-.23-.28S203.91,57.6,204,57.53Zm-1.1-12.38c1.08.87.62,2,.43,3-.11.57-.44,1.29-1.16,1.27-1,0-1.1-.85-1.12-1.64.53-.84-.34-2.19,1.13-2.76A.93.93,0,0,1,202.91,45.15Zm-1.33-17.24c.43.19.22.63-.05.89s-.67.43-1,.11c-1.12-1.07-2.77-1.86-2.6-4C200.17,25.27,200.12,27.26,201.58,27.91Zm-1.51,33.42-.13.17-.08-.2Zm-3-21.33a.36.36,0,0,1,.58-.22c.44.26.86.56.73,1.1,0,.1-.43.14-.65.2C197.26,40.85,196.89,40.55,197.09,40ZM195,65.37c.82,0,1.13.88,1.25,1.18.25,1.35-.36,1.71-1.25,1.8s-1.18-.35-1.16-1S193.8,65.4,195,65.37ZM191.72,37a.93.93,0,0,1-.71.17c-.69-.37-1.26-.85-1.21-1.67,0-.55-.08-1.13.4-1.54a1.44,1.44,0,0,1,1.37,1.18C191.75,35.75,192.61,36.34,191.72,37Zm-4.37,30.17a.81.81,0,0,1,1-.3c.89.33.86,1.07.87,1.76a1.8,1.8,0,0,1-.48,1.63c-1.17-.06-1.19-.78-1.57-1.2C186.52,68.36,186.93,67.76,187.35,67.17Zm-.93-7.06a1.28,1.28,0,0,1-.24-1.81.9.9,0,0,1,.69.06C187.45,59.11,186.4,59.49,186.42,60.11Zm2.3,3.08c-.64-.38-.59-.64.42-3,.37.3.49.35.53.44a2.07,2.07,0,0,1-.21,2.63A.88.88,0,0,1,188.72,63.19Zm1-51.48c1.17-.22,1,.72,1,1.4.39.39,1,.76.6,1.36-.22.29-.6,0-.73-.31a5.77,5.77,0,0,1-1.19-.84C189,12.74,188.63,11.93,189.74,11.71Zm-.69,37.5a.56.56,0,0,1-.81.44,1,1,0,0,1-.81-1c0-.4.21-.6.66-.66C188.74,48.16,189.2,48.52,189.05,49.21Zm-.73-18.11a1.56,1.56,0,0,1-1.18,1.36c-.57,0-1.1-.6-1.22-1.23s.68-1.17,1.16-1.22A1.2,1.2,0,0,1,188.32,31.1Zm-1.78-16.56a1,1,0,0,1,1.29,1,3.67,3.67,0,0,1-2.06,2.19,1,1,0,0,1-1.15-.84C184.36,15.51,185.57,15,186.54,14.54Zm-2.27,12.39a.91.91,0,0,1,.94,1,1.32,1.32,0,0,1-1.45,1.28.86.86,0,0,1-.9-.94A1.45,1.45,0,0,1,184.27,26.93Zm.84,18.31c-.05.34-.24.65-.72.49-.31-.1-.78-.14-.57-.63.13-.32.31-.61.77-.58A.62.62,0,0,1,185.11,45.24ZM181.78,25c.15.12.45.28.43.34a1.58,1.58,0,0,1-.44.53c-.26.21-.51.15-.56-.17S181.35,25.07,181.78,25Zm1.1,9.34c.68,0,.68.66.67,1.08,0,.93-.81,1.11-1.61,1.16-.47,0-.86-.21-.78-.61C181.32,35.1,181.76,34.33,182.88,34.33Zm-.1,21.25-.43.56c-.12-.17-.35-.35-.35-.52s.25-.33.39-.49Zm-1.22-13.07-.13.15-.07-.18Zm-.38,76a13.36,13.36,0,0,1,1.69-8.26c.21-1.94-.52-4,.59-5.82-.92-1.39.22-2.52.51-3.77a5.72,5.72,0,0,1,.11,3.74c.11,2.17.4,4.35-.23,6.48a2.79,2.79,0,0,1-.32.88c.59,5.29-1.13,10.49-.77,15.77a72.4,72.4,0,0,1-.28,10.31,3.2,3.2,0,0,1-.69,2c.11.67.35,1.36-.3,2-.58-.61-.37-1.3-.24-2a57.86,57.86,0,0,1,0-12.13A63.91,63.91,0,0,0,181.18,118.51Zm-3.52-98.06h0c.19-.89.58-1.57,1.78-1.42,0,0,0,0,0-.06l.06.06-.06-.06h.07a.47.47,0,0,1,.51-.54c.06,0,.19.2.17.27-.1.33-.36.39-.68.27,0,0,0,0,0,.05h0c.41.72,0,1.18-.69,1.51h0c-.17.17-.32.36-.51.52-.36.3-.86.9-1.21.56C176.5,21.12,177,20.66,177.66,20.45Zm.76,69.64a1.12,1.12,0,0,1-.23,1.77c-.22.19-.64.08-.62-.14C177.64,91.12,177.5,90.37,178.42,90.09Zm-1.49-39.37c0-.54,0-1.35,1-1.08s1.6.84,1.4,1.88a1.18,1.18,0,0,1-1.24,1.14C176.83,52.55,176.91,51.55,176.93,50.72Zm1.81,36,.53-.33.45.37A4.71,4.71,0,0,1,179,87C178.92,87,178.82,86.84,178.74,86.75Zm0-46.66c-.35.12-.88,0-.92-.31-.07-.62.53-1,1-1.28a.75.75,0,0,1,.95.37A1.82,1.82,0,0,1,178.78,40.09Zm-3.72-17.43.28.24-.29.46c-.08-.08-.25-.17-.24-.23A1.94,1.94,0,0,1,175.06,22.66ZM171.38,27l0-.05.05,0c-.12-1.1.55-1.72,1.61-2.11.21.05.57.07.59.16.1.42-.24.51-.62.52a2.07,2.07,0,0,1-1.58,1.43s0,0,0,.06l-.05,0,.05,0h-.08l-.29.43C170.71,27,171.13,27.05,171.38,27ZM158.54,42.94v0s0,0,.06,0V42.2A4.36,4.36,0,0,1,161,40v0h0s0,0,.06,0a1.07,1.07,0,0,1,.76-.68s0,0,0-.08l.06,0c0-.4.24-.58.66-.59,0,0,0,0,0-.08h.05c-.12-.34-.07-.61.39-.71h0a1.11,1.11,0,0,1,1.1-.65l0,0h.1c0-.47.16-.84.83-.75h0c.07-.24.14-.47.2-.71h0a5.46,5.46,0,0,1,2.94-2.94c1.27-1.26,2.33-2.72,4.08-3.55,0,0,0-.07,0-.11h0l.09,0A3.77,3.77,0,0,1,174.65,27c.68-.85,1.07-2,2.44-2.21h0c0-.3,0-.61.48-.54.06,0,.07.32.1.49h0c-.45,1.43-1.93,2.07-2.92,3.08h0c-.54.89-1.12,1.69-2.45,1.27l0,.05h0l-.05,0c.35,2-1.82,2.48-2.86,3.64a9.64,9.64,0,0,1-3.25,2.92h0c-.22.43-.46.82-1.11.64h0c.08.62-.18.88-.83.75v0h-.07a1.41,1.41,0,0,1,.18.37c0,.06-.09.15-.14.23-.2.77-.8.88-1.53.76,0,0,0,0,0,.05h0l-.09,0c0,.39-.21.6-.66.59,0,0,0,0,0,.06l0,0,0,0s-.05,0-.08,0A1,1,0,0,1,161,40s0,0,0,.05h0c.14,1.11-.53,1.74-1.59,2.14a.7.7,0,0,1-.77.69V43l-.06-.06.06.06h-.06c0,.42-.07.77-.71.71l-.08-.06C157.72,43.06,157.94,42.8,158.54,42.94ZM174,68.75c0-.15.19-.46.29-.45a2.12,2.12,0,0,1,.7.25,2.09,2.09,0,0,1-.42.42C174.26,69.16,174,69.07,174,68.75Zm.57,152.39c0,.15-.22.3-.34.45-.1-.07-.31-.16-.3-.21a3.92,3.92,0,0,1,.26-.66C174.3,220.87,174.54,221,174.54,221.14Zm.62-158.59c.35-.13.7-.22,1,.18-.09.15-.16.42-.28.44a1.4,1.4,0,0,1-.68-.17C174.79,62.86,174.79,62.69,175.16,62.55Zm.94-20c-.58.31-.58-.21-.66-.48-.13-.46.28-.56.64-.68s.81.09.74.46S176.4,42.41,176.1,42.57Zm-2.54,44.35c-.14,0-.43-.16-.43-.26a1.37,1.37,0,0,1,.23-.57l.42.33C173.92,86.66,173.85,86.88,173.56,86.92Zm-3-38.07c-.07.17-.36.26-.56.38-.11-.16-.33-.35-.3-.49.06-.32.27-.67.72-.5C170.55,48.28,170.63,48.67,170.56,48.85Zm-2.79,2.59s-.16-.14-.19-.23.08-.14.12-.21.18,0,.22,0C168.11,51.17,168.06,51.33,167.77,51.44ZM160,100.19c1.7,2.27,4.53,4,4.2,8.06a29.47,29.47,0,0,1-5.29-6.88C158.69,101.07,159.21,100.5,160,100.19ZM158.52,87a2.83,2.83,0,0,1,.42-.56c.13.18.26.37.4.55s0,.52-.29.57S158.35,87.46,158.52,87Zm4.86,2.06c0-.5.35-.52.68-.61.68,0,1,.38,1,.87,0,.33.12,1.07-.77.78A1.19,1.19,0,0,1,163.38,89.1ZM141.8,58.83c-.11-.51,0-.81.69-.72v0h0c-.12-.55.16-.77.76-.74h0c0-.22.09-.45.13-.67a15.23,15.23,0,0,1,4.6-4.4c1.12-1.85,2.22-3.72,4.68-4.42l.34.21c0-.17-.15-.23-.33-.21a.67.67,0,0,1,.31-.57,3.06,3.06,0,0,1,1.68-1.49c.3-1.13,1.27-1.62,2.35-2l.72-.19.08.06c.08.57-.32.76-.84.85A2.09,2.09,0,0,1,155.48,46c-.43.55-.66,1.31-1.65,1.29a.81.81,0,0,1-.81.83c-.45,2-2.53,2.94-3.85,4.37h0a18.09,18.09,0,0,1-5.08,4.21c0,.47-.08.82-.7.81,0,.55-.25.81-.88.63a0,0,0,0,1,0,0h0a.44.44,0,0,1-.12.66c-.67,1.71-2.23,2.67-3.76,3.66a.48.48,0,0,1,0,.12l-.06-.07.06,0C138.48,60.4,140.38,59.78,141.8,58.83Zm6.47,33.38c-.3.6-.61,1.34-1.53.91-.38-.19-.33-.79.29-1a5.56,5.56,0,0,1,1.76-3.6C149.94,90,150.07,91.14,148.27,92.21Zm-8.65-11.63c.21,1-.46,1.4-1.46,1.5h0c-.38.28-.76.58-1.15.86s-.68.29-.88-.09c-.32-.59.13-.79.66-.9a10.69,10.69,0,0,1,.7-.81c.48-.46.69-1.29,1.67-1.06A.77.77,0,0,1,139.62,80.58Zm-2.76-16.72h.08a.69.69,0,0,1,.72-.65.24.24,0,0,0,0-.08s0,0,.06,0c0-.44.15-.82.79-.6a.43.43,0,0,0,0-.05l.07.07s-.05,0-.08,0a.7.7,0,0,1-.79.6.07.07,0,0,1,0,.05s0,0-.07,0a.65.65,0,0,1-.72.65s0,0,0,.06l-.06,0a1.92,1.92,0,0,1-1.54,2.12.53.53,0,0,1-.83,0,4.4,4.4,0,0,1,2.37-2.15v-.08l.06,0Zm-58.81,89a8.44,8.44,0,0,1,.12-1c.07-.36-.16-.95.57-.9.14,0,.29.57.31.88a4.44,4.44,0,0,1-.13,1c0,.51.44,1.13-.34,1.46a.76.76,0,0,1-.94-.33C77.36,153.53,77.52,153.14,78.05,152.89Zm-9.91-17.1.24.13-.26.09Zm-7.21,7.51-.09-.22.23,0Zm3.8,50.06c.61-.91,1,.27,1.48.6.13.09.09.37.14.62C65.23,194.71,64.35,193.93,64.73,193.36Zm1.82-55.87-.07-.19.2,0ZM69,178c-.57.53-1.07.18-1.22-.51-.33,0-.71,0-.65-.46,0-.08.37-.11.57-.16a2.2,2.2,0,0,1,.67.22C68.7,177.37,69.45,177.62,69,178ZM68.64,171a.62.62,0,0,1-.83-.51c0-.29-.06-.79.53-.58.34.11.58.45.89.7C69,170.75,68.84,170.93,68.64,171Zm1.24-10.91c-.55-.18-1-.62-.94-1s.25-1.33,1-1.41c.47,0,.87.51.91,1A1.27,1.27,0,0,1,69.88,160.06Zm3-17c0-.12.36-.24.56-.36a.41.41,0,0,1,.61.23c.19.42-.09.57-.47.63A.54.54,0,0,1,72.86,143.05Zm1.59,42.47-.61-.35c.2-.1.4-.28.6-.29s.35.21.52.32Zm1-6s-.17-.12-.2-.21.07-.13.11-.2.18,0,.23,0S75.68,179.45,75.4,179.56Zm1-6.49c-.16,0-.32-.2-.46-.33s.16-.25.21-.24a5,5,0,0,1,.71.24C76.7,172.87,76.55,173.07,76.41,173.07Zm.61-5s-.2-.14-.24-.24.08-.15.12-.22.21,0,.27,0C77.4,167.71,77.35,167.89,77,168Zm.35,21a5.3,5.3,0,0,1,3.13,3.12C78.54,191.46,77.37,190.89,77.37,189.05ZM80,185.79a1.32,1.32,0,0,1-1.16-.85c-.14-.33-.3-.65-.45-1s0-.56.23-.48a3.9,3.9,0,0,1,.87.56c.88-.07,1.13.46,1.16,1.09A.58.58,0,0,1,80,185.79Zm.8-6.92a2.24,2.24,0,0,1-1.61-1.8c0-.07.41-.35.58-.32,1.25.24,1.3,1.14,1.64,2C81,178.82,80.9,178.89,80.81,178.87Zm1.28-19.54c-.14,0-.26-.23-.4-.37a2.36,2.36,0,0,1,.67-.19c.14,0,.26.24.39.37A1.89,1.89,0,0,1,82.09,159.33Zm2.34,38.45c-.16,0-.33-.2-.46-.34s.15-.27.2-.26a6.62,6.62,0,0,1,.76.25C84.74,197.57,84.59,197.78,84.43,197.78Zm1.85-11.91c0,.11-.37.18-.56.26-.58-.37-.34-.87-.25-1.32,0-.11.42-.3.49-.26C86.46,184.89,86.37,185.41,86.28,185.87ZM87.46,202l-.21-.2c.08-.06.17-.17.24-.16s.15.12.22.19ZM88,162.1a.78.78,0,0,1-.64-.2,1.76,1.76,0,0,1-.2-1.66,1.79,1.79,0,0,1,.23-.38c.24.29.47.53.67.8C88.45,161.15,88.8,161.67,88,162.1Zm1.11,64.4-.25-.14.28-.09ZM88,115a.59.59,0,0,1-.94,0c-.2-.26-.43-.71-.31-.93A3.12,3.12,0,0,1,90,112.41C89.68,113.68,88.55,114.18,88,115Zm5.78,95-.29-.24.28-.25.28.12Zm.87-12.61c-.1-.18-.28-.37-.27-.55s.22-.3.35-.45c.1.16.3.34.28.49S94.79,197.24,94.66,197.41Zm4.31,19c-.23.26-.62-.07-.7-.44-.2-.14-.39-.31-.61-.44-.55-.33-1.09-.67-1-1.36a.68.68,0,0,1,.55-.23,1.67,1.67,0,0,1,1.06,1.35C99.07,215.37,99.52,215.73,99,216.37Zm.26-10.92c-1-1.12-2.22-2.19-1.15-3.8C99.86,202.62,99.3,204.13,99.23,205.45Zm0-18.84a3.36,3.36,0,0,0-.16.33l-.31,0h-.31a3.46,3.46,0,0,1-.06-.71c.11-.86-.76-1.91.56-2.52a.79.79,0,0,1,.67.2Zm2.33-90.17-.09,0a.85.85,0,0,1-.74.67s0,.06-.05.1h-.06c0,.44-.05.8-.7.62,0,0,0,0,0,.05s0,0-.07,0c.13,1.55-1,2.26-2.38,2.84a53,53,0,0,1-7.93,8.06h0a16.2,16.2,0,0,1-3.3,2.8c0,.46-.27.69-.76.68,0,0,0,.06,0,.09h-.08c0,.43-.24.64-.71.63a.22.22,0,0,0,0,.08s0,0-.08,0a.59.59,0,0,1-.7.63s0,0,0,.06l-.07-.06.07.06-.1,0-.15.5-.36-.26.51-.24,0-.1a.27.27,0,0,1,.09,0c0-.41.24-.63.7-.63,0,0,0-.05,0-.08l.07.06-.07-.06.07,0c0-.43.12-.74.71-.63,0,0,0,0,0-.06h0l.08,0c0-.21,0-.41.08-.62a5.63,5.63,0,0,1,2.92-3,25.59,25.59,0,0,1,8.16-8c1-1.05,1.6-2.39,3.21-2.83v-.1l.07.07-.07-.07.08,0c0-.42.21-.65.7-.62V97.2h0s.07,0,.11,0a.94.94,0,0,1,.74-.67s0,0,0-.08l.08,0c.06-.18.12-.35.19-.53l.34.31-.53.22,0,.07,0,0Zm1,60.55c-.2-.16-.4-.3-.58-.47s-.2-.46.18-.53a.62.62,0,0,1,.78.56C102.86,156.69,102.73,156.84,102.61,157Zm.53-62.65-.09,0-.15.54-.39-.29.54-.25,0-.1h.09a.75.75,0,0,1,.74-.67s0,0,0-.07l.08,0c0-.4.25-.6.68-.61,0,0,0-.05,0-.08l.06.05-.06-.05h.06a.62.62,0,0,1,.73-.66s0,0,0-.07l.08.07h-.07c.09.51-.25.64-.73.66,0,0,0,0,0,.06s0,0-.09,0c0,.39-.24.6-.68.61,0,0,0,0,0,.07s0,0-.07,0a.69.69,0,0,1-.74.67S103.14,94.31,103.14,94.34Zm1.24,103.18-.19-.12.21-.06Zm0-1.28c-.17-.3-.46-.61-.45-.91s.31-.6.48-.9l.57.95Zm.79-4.47-.07-.22.21,0Zm-.32-90.3s0,0,0,.08l-.06,0,.06,0-.1,0c-.06.15-.12.31-.19.46l-.32-.28.51-.18a.36.36,0,0,0,0-.09s.05,0,.09,0c0-.39.25-.59.68-.61,0,0,0,0,0-.08l.06.06-.09,0C105.47,101.26,105.24,101.46,104.8,101.47Zm.8-.7,0,.07-.06-.06h.09l.27-.49C106.34,100.77,105.9,100.73,105.6,100.77Zm2.67,60.93a3.36,3.36,0,0,1-.34.61c-.07.21-.07.49-.22.62-.34.28-.64,1-1,.74-.69-.45-.24-1,.32-1.37a9,9,0,0,1,.15-1c.11-.46.37-1,.92-.9C109.06,160.59,108.39,161.23,108.27,161.7Zm-.22-5.27c-.38-.12-.7-.33-.58-.76a.67.67,0,0,1,.78-.59.62.62,0,0,1,.51.78C108.68,156.18,108.62,156.6,108.05,156.43Zm.54-67.25c-.57.87-1,1.89-2.19,2.24-.1.42-.24.79-.83.67,0,0,0,0,0,.06l-.08-.07h.08c0-.52.3-.83.76-1.08l-.12.23.19.18c0-.14,0-.27-.07-.41-.15-1.08.63-1.5,1.58-1.79h0a.73.73,0,0,1,.83-.69s0,0,0-.07h.08c0-.44.22-.69.74-.67,0,0,0,0,0-.07s0,0,.08,0c.73-2.77,3.2-4.55,4.86-6.79,5-6.69,11.14-12.48,17.2-18.34a41.68,41.68,0,0,1,4-3c.95.82-.06,1.29-.44,1.74a241.3,241.3,0,0,1-16.54,18.41c-2.53,2.45-5.07,4.87-7.4,7.48a1.44,1.44,0,0,1-1.64.52s0,0,0,0h-.06c.16.59-.09.81-.74.67,0,0,0,0,0,0h0A.44.44,0,0,1,108.59,89.18Zm23.58,139c-.84-2.92,1-5.59,1-8.44.63,2.56,1,5.11-.24,7.62a1.68,1.68,0,0,1,.61,2.31c.59.34,1,.76.78,1.44a.68.68,0,0,1-.58.24c-1.14-.25-.7-1.09-.75-1.75Zm.72-11.9c0-.2.27-.37.42-.54l.37.58c-.1.2-.16.55-.3.57C132.87,217,132.84,216.54,132.89,216.25Zm1.07-7.78c-.46-.27-.34-.6-.17-.93s.38-.36.54,0a1.05,1.05,0,0,1,.12.66C134.42,208.32,134.12,208.39,134,208.47Zm-12.35-73.82c-.31-.1-.38-.32-.23-.56s.41-.65.85-.6.61.37.35.74A.81.81,0,0,1,121.61,134.65Zm.73,7.33c.14.84-.64,1.22-1,2.14-.74-1.25-.8-2.09.1-2.85.1-.32.4-.64.69-.47C122.64,141.06,122.39,141.57,122.34,142Zm.69-16.69a.77.77,0,0,1,1.15-.56c.44.18.46.48-.05.69-.2,1.08.49,2.49-1.4,3C122.1,127.32,121.78,126.26,123,125.29Zm1.12-6.49c0-.11.23-.23.36-.35.07.07.21.17.2.23a4.49,4.49,0,0,1-.24.56C124.35,119.09,124.16,119,124.15,118.8Zm-.21,28c.73-.14.81.47.86.9s.19,1.14-.44,1.44a1,1,0,0,1-1.09-.93C123.19,147.68,123.11,147,123.94,146.82Zm.33-3.84c-.27-1.66-.82-2.77.55-3.6a.35.35,0,0,1,.32.08C126,140.7,124.94,141.5,124.27,143Zm-.72-34.1a4.16,4.16,0,0,1,2-3.07h0a.92.92,0,0,1,1.19-.53c.49.21.26.47-.18.59C125.85,107,125.84,108.64,123.55,108.88ZM125,94.46a.71.71,0,0,1,.69-.66c.15,0,.33.18.49.28l-.69.75C125.24,94.68,125,94.57,125,94.46Zm-6.38,52.8c0,.35,0,.7,0,1.06s.28.73-.28.82a.59.59,0,0,1-.74-.6c0-.7,0-1.41.08-2.11s-.06-1.33,1.1-2.41c-.56,1.52,1.29,2.23-.16,3.24Zm.57-47.23.08.06h0c.31.49-.07.67-.51.84a1.77,1.77,0,0,1-.08.33c-.31.63-.55,1.33-1.47,1.38-.11,0-.32-.33-.36-.52-.2-1.09.47-1.44,1.55-1.43a.76.76,0,0,1,.87-.6S119.17,100.06,119.15,100Zm-2,24.62c-.79-.76-.55-1.48.16-2.1a.64.64,0,0,1,1,.2C118.59,123.68,118.1,124.29,117.17,124.65Zm-.22-7c-.26-3.1-.26-3.1,1.91-4.48C120.19,115.28,118.38,116.25,117,117.62Zm2.29-17.55a0,0,0,0,1,0,0l-.08-.06s0,0,.09,0c0-.28.07-.47.35-.48a.52.52,0,0,1,.17.43C119.66,100.24,119.45,100.23,119.24,100.07Zm-8,8.13a.6.6,0,0,1-.62.59.33.33,0,0,1-.23-.23c0-.37.24-.54.62-.59.7-.86.76-2.23,2.8-2.63C113.27,106.84,113.06,108,111.28,108.2Zm-1.53,17.23c-.9-2.84.37-4.57,2.72-5.85C113.66,121.86,112.91,123.56,109.75,125.43ZM114,143.65c.1,0,.18.15.27.23-.1.08-.2.22-.3.21s-.17-.15-.26-.24C113.8,143.78,113.9,143.64,114,143.65Zm-.1,6.45a.55.55,0,0,1,.51.72c-.06.32-.2.86-.36.88a.85.85,0,0,1-1-.78C113,150.4,113.28,150,113.89,150.1Zm-4.38-9.26a63.6,63.6,0,0,0,0-9.26c-.21-1.77.91-2.6,3.8-3.06-2.39,3.86-1.26,7.36-1.49,10.78a6.08,6.08,0,0,1-.24,1.76,1.24,1.24,0,0,1-1.47.91C109.33,141.83,109.5,141.26,109.51,140.84ZM110,146s0,0,0-.08a.22.22,0,0,0,0,.08.66.66,0,0,1,.69-.26c.7.07.56.68.53,1.08s.2,1.07-.67.94C109.91,147.71,109.8,147.24,110,146ZM126.31,339.4a.43.43,0,0,1-.32.14c-.65-.34-.52-.83-.33-1.32l0,0v-.07c-1.65-.16-1.19-1.26-1.58-2.34,1.8.49,1.64,1.44,1.58,2.34h.06l-.07.06.07-.06,0,.08C126.33,338.4,126.58,338.78,126.31,339.4Zm1.39,21-.27-.14.29-.11Zm2.34,2.25c-.07-.07-.19-.14-.18-.21s.13-.13.21-.19.18.15.18.21S130.11,362.6,130,362.66ZM139,370.2a1.18,1.18,0,0,1-1.19.77c-1,0-1.3-.67-1.46-1.39s.3-.82.9-.87C137.82,369.2,139.26,368.93,139,370.2ZM148.3,368c2,.22,3.7.47,5,1.63C151.15,371,151.15,371,148.3,368Zm24,11.31a.44.44,0,0,1-.33-.05c-.05,0,0-.15-.07-.23s.23-.12.32-.1C172.52,379,172.55,379.15,172.26,379.29Zm31.45-1.42-.57-.26c.08-.07.19-.2.26-.19a4.74,4.74,0,0,1,.58.24Zm4.83-.29c-.59.6-1.37.43-2.12.34-.12,0-.22-.11-.58-.31.53-.26.74-.45.94-.45.59,0,1.11-.73,1.72-.17A.55.55,0,0,1,208.54,377.58Zm20.78-6.12s0,0,0,.06l-.09,0c-.14.77-.8,1.13-1.49,1.42-3,1.23-5.95,2.47-8.94,3.66a2,2,0,0,1-2.2-.31c.3-.33.47-.74.78-.85a41.42,41.42,0,0,0,7.4-3.27,5.52,5.52,0,0,1,4.45-.65s0,0,0-.05h.06c-.25-.69.33-.62.8-.61a.71.71,0,0,1,.33.16A.84.84,0,0,1,229.32,371.46Zm7.93-5c-.09.84-.68,1.25-1.55,1.4a2.67,2.67,0,0,1-3.14.55A2.43,2.43,0,0,1,234.7,367a1.68,1.68,0,0,1,1.66-.68h0a5.41,5.41,0,0,1,.92-.49,1,1,0,0,1,.6.1C237.92,366.35,237.6,366.41,237.25,366.41Zm3.09-2c0,.07-.17.1-.26.15s-.17-.17-.17-.26c0-.3.19-.38.39-.19A.29.29,0,0,1,240.34,364.42Zm16,6.93a25.84,25.84,0,0,1,5.47-5.48C260.5,368.69,260.27,368.92,256.32,371.35Zm28.29-64.28c.08.34.13.68-.43.59-.06,0-.06-.38-.09-.59a2.94,2.94,0,0,1,1.07-2.84c1,1.17-.09,2-.55,2.84h0Zm.79-46.1a83.84,83.84,0,0,1,0,15c-.64,6-1.85,11.87-2.67,17.82-.8,5.71-2.47,11.26-3.8,16.87A37.77,37.77,0,0,1,274.37,321c-5.2,8.78-10.61,17.47-16.06,26.12a53,53,0,0,1-9.84,11.28,4.67,4.67,0,0,1-3,1.21,15.22,15.22,0,0,0-6.19,2.25c-4.64,2.8-9.65,5-14.44,7.56-5,2.66-10.74,3.21-16.32,3.9-3.91.49-7.76,1.32-11.69,1.58s-7.57,1.41-11.47.6c-1.16-.24-2.26-.14-2.45-1.71,0-.39-1.94-.18-3-.4-7.26-1.46-14.14-4-21.19-6a19,19,0,0,0-4.63-1c-3.1-.1-6.11-1.62-7.37-3.73a25.51,25.51,0,0,0-4.63-6c-.25-.23.44-1.5-.8-2.15-3.71-1.94-5.41-5.43-7.8-8.41-4.39-5.45-6.27-11.8-8.61-18-2.14-5.67-4.09-11.39-6.5-17-2.63-6.11-3.09-12.63-3.74-19.06-.62-6.19-1.8-12.31-2.74-18.45-1-6.82-.65-13.66-.8-20.49-.2-9.24.33-18.49-.34-27.74a54.08,54.08,0,0,1,.5-8.19c.17-2,.08-4,.14-6l.6-21.29v-.77c.23-6.63.49-13.26.69-19.9a24.69,24.69,0,0,1,.65-5.73c.38-1.43.07-3.22,1.85-4,1.22-.51,6.45.64,7.12,1.41,3.09,3.51,5.28,7.32,5,12-.13,1.79.49,3.54.68,5.32.47,4.17.72,8.35.89,12.53.31,7.58.58,15.16.85,22.73,0,.72.23,1.58-.11,2.15-2.39,4-.78,8.18-.68,12.28,0,.48,0,1.26.26,1.37,2.55,1.08,2.31,3.66,3.64,5.4,1,1.33,1.8,2,3.47,1a2,2,0,0,1,2.9.6c.82,1,1.91.62,2.38-.57.9-2.24,1.39-4.51,3-6.64,1.12-1.5.44-4.22.25-6.38a68.27,68.27,0,0,1,.62-14.29c.26-2.15.18-4.29.35-6.42a344.19,344.19,0,0,0,.68-42,69.86,69.86,0,0,1,1-15.45,278.26,278.26,0,0,0,3.32-28.18c.18-2.39.41-4.71,2.62-6.5,1.7-1.37,1.53-3.78,3.19-5.37a11.14,11.14,0,0,1,3,6.22,12.32,12.32,0,0,0,.34,1.71,1,1,0,0,0,1.24.62c.64-.12.73-.56.73-1.08s-1-1.26.1-2.15c1.38,1.24,1.32,3,2,4.41.22.45.12,1.59,1,1.17,2.71-1.36,2.08.54,2.16,1.67.79,12.3,1.18,24.6,1,36.92-.07,4.7-.29,9.33-.72,14A65.75,65.75,0,0,0,168,182a77.92,77.92,0,0,1,.48,18.88,55.34,55.34,0,0,0-.2,5.77c0,1.32.17,2.66-.67,3.87-.46.66-.75,1.64-.17,2,2.46,1.56,1.19,3.32.64,5.11-.39,1.25.29,2.34.77,3.46.39.89.72,1.8,1,2.71.91,2.67,1,2.71,4.12,1.64a1.84,1.84,0,0,1,1.37-.17c2.78.79,3.68.29,4.27-2.14a28.24,28.24,0,0,0,.61-7.16c0-.83-.52-1.93,1.43-1.87,1.05,0,1-1.24,1-2.07-.28-5.62,1.16-11.15.7-16.82-.38-4.61.29-9.28.15-13.94-.08-2.28-.36-4.52-.54-6.78-.36-4.55,0-9.11-.28-13.67-.26-4.73-.05-9.47,0-14.21a12.29,12.29,0,0,1,.39-2.85,45.55,45.55,0,0,0,1.49-14.14c-.35-5.4.76-10.77.94-16.17.16-5.14.86-10.27,1-15.41.19-5.45,2.63-10.2,5.38-14.81,1.36-2.27,5.58-1.74,6.74.69a33.2,33.2,0,0,1,3.65,15.9,25.22,25.22,0,0,0,.77,7.79c2,7.25,1.28,14.59,1.21,21.88,0,3.58,0,7.17-.09,10.76-.1,4.25-.6,8.5-.42,12.78.06,1.42.42,2.81.37,4.25-.34,10.28-.4,20.57-.92,30.84-.25,4.93-.4,9.85-.41,14.78a13.49,13.49,0,0,0,1.6,7.3,3.28,3.28,0,0,1,.28,2.78c-.62,2.13-.17,4.27.28,6.39.12.59.27,1.35,1,1.37,3.89.13,7.83,1,11.61-.63a1.72,1.72,0,0,0,1.14-1.36c.68-4,2.11-7.9.1-12a10,10,0,0,1-.64-4.6c.13-5.84-.25-11.68-.63-17.52a65.17,65.17,0,0,1,.77-13.14c.58-4.19.43-8.38.68-12.57.51-8.43.12-16.88,1.28-25.3.54-3.87.06-7.84.41-11.74.51-5.59.09-11.27,1.83-16.76a21.17,21.17,0,0,0,.78-5c.3-4.37,4-6.22,7.12-8.47,1.25-.89,6.66.91,7.29,2.35a21.05,21.05,0,0,0,2.17,3.84,4.25,4.25,0,0,1,.69,3.06,116.3,116.3,0,0,0,.6,22.61,139.57,139.57,0,0,1,1.34,20c-.17,8.25.22,16.49.59,24.7.36,7.87.21,15.75,1,23.62.56,5.53-.08,11.14,0,16.71,0,5.25.23,10.5.39,15.74a239.35,239.35,0,0,0,2.35,29.53c.19,1.19,0,3.17,2.41,1.48a.68.68,0,0,1,1,.16c.63.64.84,2,2.37,1.25,1-.46.64-1.55,1.29-2.16a1.65,1.65,0,0,1,.32-.18c.54-.21.71.17.82.48.37,1,.9,1.83,2.27,1.48,1.16-.29,1.06-1.35,1.09-2.1.22-5,1.33-10,0-15.07a2.15,2.15,0,0,1,0-1.07c1.55-6,1.44-12.15,3.06-18.07a48.15,48.15,0,0,0,1.45-6.27c1.23-9.56,6.9-16.93,14.09-23.53a5,5,0,0,1,3.36-1.74c2.49,0,3.53,1.08,3.57,3.57.14,6.83.54,13.68.34,20.51-.27,9,.91,18,1,27,0,1.67,0,3.35-.07,5,0,.48-.31,1-.16,1.42C287,251,285,256,285.4,261Zm2-89c-.51.33-1,0-1.25-.45s-.83-.59-.44-1.14a1,1,0,0,1,1.36.25C287.51,171,288.3,171.45,287.43,172Zm.36-36.49c0,.59.08,1.19-1.12,1.5a4.6,4.6,0,0,1,.25-3.43c.32-.49.86-.06.91.51A1.58,1.58,0,0,1,287.79,135.53Zm.17-13.62c-.1-.58,0-1.18.85-1.19a.67.67,0,0,1,.69.66.94.94,0,0,1-.77,1A.55.55,0,0,1,288,121.91Zm1.3,187a2.31,2.31,0,0,1-.15-2.95C289.77,306.76,289.8,307.56,289.26,308.88Zm-.16-116.62a4.35,4.35,0,0,1,.62-1.19c.69,0,.66.41.72.72.1.46.14,1-.55,1.1C289.47,193,289.05,192.61,289.1,192.26Zm1.43,109.57c-1.51-2.62.17-4.83,0-7,1-1.19.33-2.74,1.1-4a12.12,12.12,0,0,1,.05,5.39,5.78,5.78,0,0,1-.27,1.09c-.05.19-.09.38-.14.57A8.35,8.35,0,0,1,290.53,301.83Zm1-12.18a1.08,1.08,0,0,1-.42-.48,1.28,1.28,0,0,1,.34-1.29c.15.1.39.17.43.29C292.07,288.72,292.2,289.28,291.54,289.65Zm.4-53.53c-.17.61-.71,1.25-1.25.93-.85-.51-.28-1.18.32-1.68.14-.61.07-1.69,1.08-1.31C293.62,234.64,292.4,235.44,291.94,236.12Zm.9-94.06c-.2.43.36,1.3-.6,1.22-.6-.05-.22-.75-.18-1.17v-2.28c-.09-.48.07-.72.66-.58C294.22,140.13,294,141.08,292.84,142.06Zm1.9,174.37s-.2-.15-.24-.26.08-.17.12-.25.22,0,.27,0C295.13,316.09,295.08,316.29,294.74,316.43Zm-.37-188.54c-.68,0-.79-.46-.83-.92s.11-.72.58-.63a1.26,1.26,0,0,1,1,.93C295.08,127.69,294.78,127.88,294.37,127.89Zm2.87,70.1c-.13-.15-.33-.29-.36-.46s.23-.24.38-.33.25.14.23.19A3.82,3.82,0,0,1,297.24,198Zm.43-10.26c-.09.42,0,1.26-.52,1.07-.86-.31-.36-1.16-.24-1.8-.1-.54-.45-1.13.3-1.5a.84.84,0,0,1,.71.14C298.76,186.41,298.23,187.08,297.67,187.73Zm-.35-7.76a3.47,3.47,0,0,1,.33-.18.43.43,0,0,1,.65.23c-.18.1-.35.29-.53.29S297.47,180.09,297.32,180Zm.85-6.07c-1.05-.42-1.42-1-.85-1.89.44-.66,1.16-.09,1.1.93A5.46,5.46,0,0,1,298.17,173.9Zm-.42-18c.55-.14.53.32.65.56s0,.72-.46.75-.54-.4-.71-.69C296.94,156,297.44,156,297.75,155.88Zm.53-5.17c-.63.07-.87-.4-1.14-.8-.64-.92.13-1.85-.18-3.36,0-.12,0-.82,0-1.53,0-.42.35-.57.78-.61s.65.37.69.69c.24,1.52.44,3,.61,4.57A.83.83,0,0,1,298.28,150.71Zm.55-12.14a.59.59,0,0,1-.49-.79c.15-.21.08-.79.66-.47a1.22,1.22,0,0,1,.59.78C299.63,138.45,299.26,138.67,298.83,138.57Zm1.2,71.66c.1-.51,0-1.23.82-1.39s.69.51.93.82a1.19,1.19,0,0,1-1,1.33C300,211.22,300,210.57,300,210.23Zm2.24,11a1.14,1.14,0,0,1-.71.22c-1.07-.22-.86-1.05-.86-1.72s-.26-1.17.44-1.59c.83.06.95.73,1.18,1.23S303.23,220.66,302.27,221.24Zm0-15.61c-1-.17-1.11-1.13-1.44-1.83-.21-.42-.13-.9.56-1.08,1.34.09,1.31,1.22,1.65,2A.66.66,0,0,1,302.24,205.63Zm.22-10.66c-.62-.11-.78-.5-.62-1.12.14-.27-.07-.95.73-.84.63.09.64.66.64,1.08S303.29,195.1,302.46,195Zm.25-44.77c.07-.06.49.09.59.23.25.33.71.74-.1,1h0c0,.7-.05,1.4-.08,2.1s.45,1.42-.29,2c-.74-.58-.25-1.33-.35-2a2.65,2.65,0,0,1,.17-2.13C302.6,151,302.26,150.56,302.71,150.2Zm.27,36.19c-.49,0-.57-.34-.5-.67s.36-.35.62-.18a2.26,2.26,0,0,1,.4.47C303.32,186.14,303.15,186.39,303,186.39Zm1-13.92c-.55.15-.67-.2-.72-.52s.09-.73.5-.68a1.24,1.24,0,0,1,.76.59C304.77,172.35,304.22,172.35,304,172.47Zm-.2-27.95c-1-.15-.68-1.07-.66-1.69,0-.41.08-1,.86-.89s.86.76.91,1.15C304.79,143.94,304.43,144.62,303.75,144.52Zm.4-6.45c.09-.07.18-.2.26-.19s.16.14.23.22c-.09.06-.18.19-.26.18S304.23,138.14,304.15,138.07Zm1.06,77.77c-.09-.08-.25-.17-.24-.22a2,2,0,0,1,.25-.42l.25.26C305.39,215.56,305.3,215.7,305.21,215.84Zm.26-81.09c-.57.14-.85-.27-1.13-.63-.65-.45-1.32-1.21-.35-1.58,1.37-.52,1.55.63,1.65,1.55C306.11,134.42,305.81,134.67,305.47,134.75Zm3.33-8.64c-2.44-2.18-4-5.11-7.24-6.63-.51-.24-1.25-1-.67-1.77a1,1,0,0,1,1.13,0,82,82,0,0,1,8.36,7.15c.62.56.83,1.33,0,1.85C309.76,127.05,309.33,126.59,308.8,126.11Zm2.76,82.33a.91.91,0,0,1-.84-.63c-.27-.53.26-.56.58-.67.54-.19.68.2.75.53A.59.59,0,0,1,311.56,208.44Zm.31-21.61c-.12,0-.27-.22-.41-.34.09-.07.2-.21.27-.2a5.3,5.3,0,0,1,.67.23C312.23,186.63,312.06,186.81,311.87,186.83Zm1-57.55c-.1-.27-.32-.65.19-.85a.91.91,0,0,1,1,.22,1.51,1.51,0,0,1,.38,1.8h0s0,0,0,.07c.3-.11.56-.09.69.23,0,.06-.11.25-.17.25a.45.45,0,0,1-.52-.48h-.08a.32.32,0,0,0,0-.09A1.5,1.5,0,0,1,312.87,129.28Zm1.1,14.21c-.08-.48-.27-1,.24-1.31s.93-.12,1.24.32c.78,1.09,2.28,1.71,2.58,3.12.44.26.43.57,0,.71a1,1,0,0,1-1.23-.6C315.75,145.07,314.2,145,314,143.49Zm5,44.65c-1.87-.25-2.22-1.16-2-2.71C318.45,185.92,318.62,187,318.94,188.14ZM316,160.7c1,1.84,1,1.84-.24,5.24C314.33,162.58,314.33,162.58,316,160.7Zm-.27,12.38c-.51.09-.52-.31-.59-.61-.47-.17-.59-.47-.09-.63s1,0,.9.66C315.92,172.7,315.88,173.06,315.77,173.08Zm1.37,22.29a7.33,7.33,0,0,1-.85-1.9c-.11-.75-.45-1.68.52-2.25.71-.42,1.2.13,1.67.48.89.67,1.37,1.46.51,2.41A2.71,2.71,0,0,1,317.14,195.37Zm2.12,2.29a1.05,1.05,0,0,1-.26-.22l.62-.27c.08.09.25.19.23.24C319.77,197.69,319.55,197.78,319.26,197.66Zm3.33-26.61a2.41,2.41,0,0,1-.07-.35c0-.65-.39-1.46.69-1.74a.81.81,0,0,1,.68.21,1.33,1.33,0,0,1-.58,1.84c-.14.45.4,1.3-.54,1.25C322.2,172.23,322.57,171.48,322.59,171.05Zm.84,26.22a.5.5,0,0,1-.82-.27.37.37,0,0,1,.27-.56.73.73,0,0,1,.92.3C323.69,196.91,323.61,197.16,323.43,197.27Zm.31-7.75c-.12-.2-.34-.39-.35-.59s.24-.33.37-.5l.39.51Zm-.06-35.71a1.51,1.51,0,0,1-.19-1.72,10.9,10.9,0,0,1,1.28.91c.42.41,1,1,.14,1.4C324.4,154.66,324,154.22,323.68,153.81Zm3.65,38.08c-.29.79-.7,1.65-1.79,1.4-.83-.19-.88-1.1-.74-1.77a1.23,1.23,0,0,1,1.67-1A1.08,1.08,0,0,1,327.33,191.89Zm.07-8.62c-.07.43.09.93-.46,1.23a1.6,1.6,0,0,1-1.33-1.15c-.41-.9-1.81-1.55-.89-2.77.11-.15.6-.27.7-.18C326.36,181.19,327.62,181.82,327.4,183.27Zm-.9-5.12c-.7-.3-1.44-.69-1.43-1.54,0-1.38-.25-2.8.41-4.47,2.81,1.4,1.53,3.68,2.33,5.33C328.1,178.07,327.21,178.45,326.5,178.15Zm3-53.35c-1,.83-2-1-3-1.73-3.76-2.66-6.58-6.14-9.94-9.16h0c-.87-.38-1.2-1.18-1.79-1.87,1.19-.42,1.62.31,2.07,1,1.45-.35,2.47-.78,3.58,1.07,1.75,2.93,5,4.88,7.55,7.32C329,122.4,331,123.46,329.48,124.8Zm2.62,37.37c-2.27-.83-.9-2-.63-3.83a4.14,4.14,0,0,1,.78,3.08l.42.64Zm.65-15.68c-.58-.27-1.27-.71-.88-1.27s.91-.14,1.06.44h0c2.23,0,1.81,1.22,1.26,2.42a.71.71,0,0,1-.61.24C332.62,148,333,147.13,332.75,146.49Zm2.08,31.09a1.19,1.19,0,0,1-1.16-1.44c-.37-.09-.81-.3-.45-.61s.55.13.68.42h0c.89,0,1.42.42,1.4,1.24C335.3,177.33,335,177.6,334.83,177.58Zm-1.71-51.16c2.42.86,2.91,2.78,3.73,4.48C335.52,129.55,332.38,129.42,333.12,126.42Zm6.49,48.1c-.19.29-.46.54-.83.37a.63.63,0,0,1-.24-.59c.12-.38.49-.36.86-.28S339.83,174.26,339.61,174.52Zm1.77-5.63c-2-1.32-1.92-2.54-1.38-4.17C341.9,165.89,341.52,167.26,341.38,168.89Zm17.73-10.37c-.42.07-.52-.24-.6-.53-.68-.16-.85-.87-.5-1,1.09-.47,1.07.5,1.31,1.07C359.25,158.21,359.21,158.5,359.11,158.52Z"/></svg>